<?xml version="1.0" encoding="utf-8"?>
<!-- Generator: Adobe Illustrator 23.0.1, SVG Export Plug-In . SVG Version: 6.00 Build 0)  -->
<svg version="1.1" id="Layer_1" xmlns="http://www.w3.org/2000/svg" xmlns:xlink="http://www.w3.org/1999/xlink" x="0px" y="0px"
	 viewBox="0 0 500 500" style="enable-background:new 0 0 500 500;" xml:space="preserve">
<g>
	<g>
		<path style="fill:#FBFBFB;" d="M250.9,395.74c-68.43,0-136.87-0.09-205.3,0.16c-5.92,0.02-7.32-1.05-7.3-7.2
			c0.26-91.02,0.22-182.04,0.07-273.06c-0.01-5.35,0.21-7.56,6.94-7.54c137.88,0.29,275.76,0.26,413.64,0.07
			c5.52-0.01,6.79,0.98,6.78,6.68c-0.23,91.36-0.27,182.72,0.06,274.07c0.02,6.78-2.25,6.94-7.56,6.93
			C389.12,395.68,320.01,395.74,250.9,395.74z"/>
		<path style="fill:#708DC3;" d="M141.25,233.86c-3.91,20.8-3.9,20.75,16.82,26.02c12.64,3.22,25.24,6.63,37.85,9.95
			c0.06,0.68,0.21,1.56-0.21,1.95c-14.97,14.01-18.64,33.58-25.49,51.59c-1.05,2.76-1.59,5.92-4.74,7.35
			c-27.02-2.71-54.09-5.01-81.03-8.3c-15.7-1.92-24.24-14.13-21.1-29.68c4.69-23.3,16.64-43.76,26.92-64.83
			c1.88-3.86,5.89-4.06,9.4-5.04c7.46-2.45,13.52,3.15,20.49,3.52c4.24,0.58,8.17,2.15,12.13,3.66
			C135.26,231.36,138.91,231.09,141.25,233.86z"/>
		<path style="fill:#403E3E;" d="M229.18,225.68c-6.89-24.48-1.5-45.89,15.99-64.33c1.28-1.35,3.23-2.32,3.08-4.81
			c-0.5-8.11,8-18.46,16.15-17.59c24.76,2.64,49.84,5.17,71.63,18.75c20.53,12.8,27.06,35.98,18.11,60.29
			c-2.73,4.41-7.21,4.5-11.59,4.52c-23.18,0.15-46.36,0.12-69.54,0.02c-4.79-0.02-9.52-0.63-13.33-3.75
			c-5.9-4.85-10.77-3.3-16.04,1.28C239.65,223.54,236.23,229.66,229.18,225.68z"/>
		<path style="fill:#53B348;" d="M165.49,330.73c3.87-14.66,9.79-28.61,14.88-42.85c2.91-8.14,9.36-12.91,15.56-18.05
			c15.19,5.48,28.51,2.49,39.64-9.19c3.31-3.47,7.24-4.64,11.66-5.17c12.07-1.73,19.5,6.14,27.31,13.22
			c0.74,2.94,0.16,5.38-2.64,6.98c-4.57,2.59-11.37-2.24-14.66,3.94c-4.16,7.8-6.27,16.11-4.8,25.17c1.38,8.49,6.06,16.47,4.11,25.5
			c-2.44,4.63-7.87,5.45-11.3,8.84c-17.34,1.44-34.77,2.21-52,4.52C180.63,345.34,171.94,341.07,165.49,330.73z"/>
		<path style="fill:#F5D4A8;" d="M273.25,268.8c-8.51-4.76-16.22-11.1-26.03-13.32c1.75-6.18-3.92-8.93-6.71-12.31
			c-4.53-5.47-8.52-11.04-11.33-17.5c9.24,0.37,11.82-8.99,18.35-12.64c2.49-1.39,4.42-4.8,7.44-1.27
			c7.82,9.11,18.51,8.26,28.82,8.25c21.52-0.02,43.04-0.33,64.56-0.63c1.94-0.03,3.86-0.91,5.79-1.4
			c2.62,22.61-6.43,39.15-26.1,50.16c-6.37,5.25-14.5,4.72-21.87,6.68c-7.88-0.22-14.96,5.44-23.11,3.18
			c-3.86-1.34-2.84-7.4-7.61-7.89C274.69,269.72,273.96,269.27,273.25,268.8z"/>
		<path style="fill:#9FA0A3;" d="M141.25,233.86c-3.2-0.37-6.67,0.85-9.54-1.57c-11.17-20.75-20.37-42.24-24.44-65.63
			c6.52-6.55,15.5-8.87,23.2-13.39c1.56-0.91,3.38-0.62,4.74,0.5c7.45,6.12,16.84,10.14,21.62,19.15
			c10.45,19.7,11.04,39.36-0.59,58.92c-1.11,1.87-1.64,3.41-4.33,2.76c-2.7-0.65-4.45-2.25-7.22-8.22
			C143.42,229.16,142.34,231.51,141.25,233.86z"/>
		<path style="fill:#F5D4A8;" d="M287.6,357.17c-4.92-2.83-9.84-5.66-14.76-8.48c1.2-7.55,7.5-10.9,12.8-14.73
			c6.75-4.88,8.38-9.93,3.16-16.9c-2.38-3.18-4.9-6.55-4.59-10.97c1.43-4.42,4.57-6.35,9.1-6.25c4.67,2.21,5.9,6.9,7.75,11.06
			c1.75,3.95,3.12,8.07,7.44,10.08c9.44,3.26,17.75,0.98,25.24-5.17c4.9-4.03,9.95-7.87,14.86-11.91c1.64-1.14,3.32-2.18,5.45-1.42
			c4.1,4.51,5.23,11.13,10.51,14.81c0.34,1.67-0.64,2.53-1.95,3.19c-1.44,9.98-7.39,15.43-16.83,18.54
			c-15.18,4.99-28.89,14.33-45.52,15.16c-1.72,0.09-3.34,2.02-5,3.09C292.68,359.44,290.14,358.46,287.6,357.17z"/>
		<path style="fill:#0BA948;" d="M285.06,306.62c3.22,6.92,11.94,13.24,10.21,19.75c-1.67,6.31-10.37,10.76-15.96,16.05
			c-2.18,2.06-4.32,4.18-6.47,6.28c-4.64-0.69-8.6-4.15-13.61-3.36c-3.65,0.54-2.75-2.16-1.96-3.48c2.76-4.59,0.39-7.97-2.13-11.42
			c0.09-5.76-2.18-11.01-3.47-16.47c-2.06-8.73-4.03-17.24-0.83-26.39c5.09-14.57,4.7-14.7,20.26-13.16
			c10.94,7.2,10.41,19.6,13.7,30.26C284.97,305.27,284.9,305.97,285.06,306.62z"/>
		<path style="fill:#0BA948;" d="M307.3,322.61c-9.07-4.47-9.15-14.67-13.94-21.87c-0.3-11.31,3.91-20.66,12.25-28.23
			c7.47-1.46,14.95-2.91,22.42-4.37c3.21,2.09,6.42,4.19,9.63,6.28c4.61,5.72,4.78,13.05,1.17,17.94
			C330.17,304.13,320.81,315.67,307.3,322.61z"/>
		<path style="fill:#413F3F;" d="M107.28,166.66c9.18,21.09,15.11,43.47,25.46,64.1c0.14,0.27-0.66,1.01-1.02,1.53
			c-4.02-1.47-8.05-2.93-12.07-4.4c-5.98-3.56-11.95-7.13-13.82-14.59c-0.86-11.63-1.73-23.25-2.57-34.88
			C102.93,173.95,103.68,169.81,107.28,166.66z"/>
		<path style="fill:#F2F6F6;" d="M307.3,322.61c6.83-6.9,13.22-14.33,20.61-20.57c8.93-7.53,12.13-16.42,9.75-27.62
			c1.29,0.61,2.57,1.22,3.86,1.82c9.13,7.33,7.98,17.99,9.07,27.92c-10.59,10.02-20.03,22.08-36.99,20.8
			C311.24,324.79,308.86,324.86,307.3,322.61z"/>
		<path style="fill:#585656;" d="M362.61,320.47c0.65-1.06,1.3-2.13,1.95-3.19c27.87,0,55.74,0,83.61,0
			c-2.04,2.52,1.03,13.48-7.29,4.58c-2.25-2.41-5.78-1-8.69-1.02C409,320.63,385.8,320.57,362.61,320.47z"/>
		<path style="fill:#A0A1A4;" d="M287.6,357.17c2.58-2.26,5.1-0.01,7.65,0.1c4.53,3.61,9.9,3.67,15.31,3.66
			c20.68-0.03,41.36-0.01,62.04-0.01c0,0.83-0.01,1.66-0.01,2.48c-27.18,0-54.36-0.13-81.54,0.1
			C284.84,363.56,286.87,360.29,287.6,357.17z"/>
		<path style="fill:#7D96C5;" d="M350.59,304.17c-5.13-8.62-4.07-19.26-9.07-27.92c0,0,0.51-0.25,0.51-0.25l0.33,0.46
			c4.38-1.82,2.52-3.9,0.25-6c0.47-2.32,1.43-4.63,4.03-4.61c2.27,0.01,3.33,2.12,3.21,4.27c-0.57,11.05,3.94,21.42,4.18,32.35
			C352.9,303.03,351.75,303.6,350.59,304.17z"/>
		<path style="fill:#EAD2A6;" d="M255.14,330.43c14.12,1.47,4.43,9.47,4.09,14.9c-8.11,5.71-10.04-2.53-13.98-6.21
			C244.18,331.25,252.29,333.84,255.14,330.43z"/>
		<path style="fill:#EFD2AD;" d="M105.82,213.31c4.61,4.86,9.21,9.72,13.82,14.58c-7.28,0.78-13.18-3.94-19.98-5.01
			C101.72,219.68,103.77,216.49,105.82,213.31z"/>
		<path style="fill:#2C2C3D;" d="M342.62,270.45c0.88,4.11,5.51-5.29,5.44,1.46c-0.04,3.36,0.39,8.3-5.69,4.55
			C342.45,274.46,342.54,272.46,342.62,270.45z"/>
		<path style="fill:#54B24B;" d="M305.61,272.52c-4.08,9.41-8.17,18.82-12.25,28.23c-3.56,0.84-6.08,3.15-8.31,5.87
			c-4.88-6.49-5.73-14.55-8.49-21.87c-1.4-3.71-2.76-7.37-5.48-10.34c2.31-1.26,2.17-3.46,2.16-5.61c0.67,0.1,1.34,0.2,2.01,0.3
			c2.66,1.93,3.58,5.3,6.1,7.34C289.94,278.19,297.06,270.92,305.61,272.52z"/>
		<path style="fill:#403E3E;" d="M281.37,276.44c-5.62,0.53-6.7-2.71-6.1-7.34C282.75,267.02,284.15,269.98,281.37,276.44z"/>
	</g>
</g>
</svg>
