<?xml version="1.0" encoding="utf-8"?>
<!-- Generator: Adobe Illustrator 23.0.1, SVG Export Plug-In . SVG Version: 6.00 Build 0)  -->
<svg version="1.1" id="Layer_1" xmlns="http://www.w3.org/2000/svg" xmlns:xlink="http://www.w3.org/1999/xlink" x="0px" y="0px"
	 viewBox="0 0 2000 1100" style="enable-background:new 0 0 2000 1100;" xml:space="preserve">
<g>
	<g>
		<path style="fill:#FCFBFB;" d="M1586.71,1151.37c-446.78,0-893.56-0.06-1340.34,0.32c-12.7,0.01-15.56-2.79-15.51-15.5
			c0.53-141.06,0.34-282.12,0.34-423.17c3.64,15.67,7.28,31.35,10.92,47.02c3.23,38.28,6.46,76.56,9.69,114.84
			c-1.11,40.17-2.41,80.33-3.26,120.5c-0.4,18.91,7.98,26.21,24.69,24.9c14.09-1.11,28.34-0.2,42.52-0.39
			c3.17-0.04,6.33-0.96,9.49-1.47c-1.04-2.9-3.09-5.86-2.94-8.7c0.58-11.39,1.84-22.74,2.85-34.11
			c3.67,10.26,7.34,20.53,11.01,30.79c0.33,3.3,0.71,6.6,0.98,9.9c3.11,38.35,33.6,69.55,28.97,110.16
			c-0.28,2.45,6.46,7.96,9.99,8.01c4.63,0.06,11.17-2.71,13.51-6.41c3-4.73,3.66-11.62,3.52-17.54c-0.33-14.23,4.9-17.03,16.55-9.49
			l-0.57-0.01c1.16,4.57,2.31,9.15,3.47,13.72l-0.11-0.03c1.19,2.31,2.38,4.62,3.58,6.92c4.11,4.44,7.62,11.41,12.5,12.54
			c4.19,0.98,10.8-3.8,14.83-7.63c11.3-10.73,11.29-23.38,7.2-38.12c-6.65-23.99-12.2-48.47-15.64-73.1
			c-1.77-12.67,2.03-26.12,3.31-39.22c2.44-15.44,5.32-30.82,7.19-46.33c1.36-11.22,1.39-22.61,2.01-33.92
			c34.73-12.54,48.66-34.66,42.93-68.17c-0.65-13.38-1.31-26.75-1.96-40.13c5.19-20.36,10.38-40.72,15.57-61.08
			c3.2-2.85,6.4-5.71,9.6-8.56c-0.57,11.87-1.15,23.75-1.73,35.63c-0.04,2.25-0.09,4.51-0.13,6.76c-0.57,1.05-0.63,2.13-0.17,3.23
			c-2.34,13.5-4.68,27-7.02,40.5c-0.24,21.79-0.48,43.58-0.72,65.37c4.71,10.8,9.41,21.6,14.12,32.4
			c3.16,15.66,6.32,31.32,9.48,46.98c4.06,48.29,8.12,96.58,12.17,144.88c-0.08,2.51-0.15,5.03-0.23,7.54
			c0.68,3.11,1.36,6.21,2.04,9.32c-0.75,2.61-1.72,5.17-2.22,7.83c-1.22,6.48-2.22,13-3.31,19.51c11,0.07,22.06,0.78,32.94-0.29
			c2.55-0.25,4.51-6.56,6.74-10.08c1.33-21.07,2.35-42.16,4.18-63.18c0.53-6.05,3.38-11.9,5.16-17.85c0.14,0.74,0.58,1.04,1.32,0.9
			c0.67,11.31,1.34,22.61,2.01,33.92c0.9,12.44,10.49,16.82,18.48,11.65c7.18-4.64,12.37-15.44,14.18-24.39
			c1.73-8.56-2.91-18.2-3.12-27.41c-0.26-11.16,3-22.62,1.46-33.48c-2.03-14.28-7.25-28.1-11.11-42.11c3.57-19,7.13-38,10.7-56.99
			c6.4-6.15,13.29-11.89,19-18.62c2.76-3.25,3.42-8.33,4.83-12.64c1.25-3.82,2.22-7.74,3.32-11.61c3.15,2.04,6.3,4.09,9.45,6.13
			c2.36,13.5,5.42,26.93,6.9,40.52c1.84,16.95,2.38,34.05,3.48,51.08c0.09,3.91-1.12,8.49,0.48,11.63
			c9.96,19.47,6.14,38.25,1.09,58.35c-3.19,12.73,0.52,27.18,1.13,40.87c1.36,6.44,2.05,13.13,4.3,19.24
			c1.5,4.07,4.76,9.68,8.08,10.34c4.61,0.91,10.58-1.25,14.85-3.9c2.6-1.61,2.79-6.79,4.6-10.07c5.35-9.68,10.97-19.22,16.48-28.81
			c1.23,9.99,2.45,19.98,3.68,29.96c-0.18,6.14-0.9,12.34-0.43,18.43c1.57,20.42,10.91,28.56,30.26,28.98
			c21.83,0.48,18.23-15.86,18.6-28.15c1.04-34.7,0.56-69.44,1.45-104.14c0.2-7.96,3.48-15.84,5.35-23.76
			c0.48,8.05,0.61,16.14,1.51,24.14c1.93,17.03,3.25,34.26,7.19,50.84c0.91,3.83,11.41,7.36,17.39,7.2
			c3.23-0.09,9.69-9.08,8.83-12.65c-7.79-32.33-4.99-64.16,2.15-96c14.47-17.91,18.57-37.21,8.58-58.81
			c-2.09-4.52-2.49-9.83-3.67-14.77c2.76-12.47-6.38-30.62,16.22-33.81c1.38-0.2,3.74-4.7,3.12-6.06
			c-7.39-16.33,4.15-21.56,15.45-26.53c9.5-4.18,12.96-8.4,5.55-18.43c-6.85-9.27-11.31-20.3-16.83-30.56c0-4.47,0-8.95,0-13.42
			c-0.19-1.08-0.39-2.15-0.58-3.23c0.26-13.56,0.53-27.11,0.79-40.67c1.26-1.96,2.52-3.92,3.78-5.87c3.22,1.97,6.45,3.95,9.67,5.92
			c2.96,18.76,2.22,39.31,10.13,55.68c5.69,11.78,11.1,22.2,11.05,35.2c1.39,40.59,19.3,79.27,13.97,120.65
			c-0.04,0.34,0.73,0.79,1.12,1.18c0.64,4.39,0.89,8.88,1.99,13.15c9.22,35.73,23.31,71.1,5.83,108.4
			c-1.23,2.61,1.08,10.02,2.42,10.2c10.83,1.47,22.01,3.05,32.62,1.46c2.71-0.41,5.88-12.25,5.16-18.4
			c-2.2-18.7-8.85-37.17-8.92-55.75c-0.13-34.46,3.17-68.94,5.04-103.4c6.88-21.68,13.68-43.38,20.71-65.02
			c1.04-3.21,3.11-6.09,4.7-9.12c1.9,2.29,3.79,4.58,5.69,6.88c2.18,8.39,4.43,16.76,6.52,25.18c7.89,31.86,16.12,63.68,13.52,97.03
			c-0.09,1.11,1.96,2.39,3.01,3.6c2.4,10.74,6.43,21.41,6.88,32.23c0.99,23.72-0.11,47.52,0.17,71.27
			c0.27,22.59,10.01,27.25,30.78,16.04c5.6-3.02,12.8-2.99,18.54-5.82c7.56-3.74,14.41-8.92,21.56-13.48
			c-6.32-6.73-12.24-13.89-19.06-20.08c-6.87-6.24-14.62-11.51-21.99-17.2c0.06-6.7,0.12-13.4,0.18-20.1
			c0.06-1.08,0.12-2.16,0.17-3.24c4.19-29.67,10.8-59.2,0.87-89.17c-1.96-5.92-2.89-16.51,0.35-19.06c12-9.45,8.28-21.47,9.47-33.2
			c1.28-12.51,4.77-24.8,7.3-37.19c8.73,8.23,17.47,16.45,26.2,24.68c0.12,0.82,0.57,1.34,1.36,1.57c1.65,1.39,3.31,2.78,4.96,4.17
			l0.14-0.01c14.59,2.44,29.18,4.89,43.77,7.33c0.63,11.53,2.53,23.16,1.64,34.57c-2.28,29.51-6.78,58.86-8.5,88.39
			c-1.44,24.73-0.81,49.65,0.37,74.41c0.23,4.84,6.46,12.25,11.21,13.47c12.23,3.14,25.16,4.08,37.86,4.66
			c5.49,0.25,11.12-2.57,16.68-4c-2.45-4-4.64-8.19-7.4-11.97c-5.43-7.42-0.76-48.7,6.92-49.37c15.88-1.38,14.96-11.7,16.27-21.95
			c14.24,1.26,18.44-5.28,16.55-18.97c-0.81-5.85,2.44-12.25,3.84-18.41c-0.18-12.02-0.37-24.05-0.55-36.07
			c4.4,2.64,12.02,4.69,12.63,8.03c2.52,13.68,3.21,27.74,3.97,41.7c0.6,10.86,0.32,21.77,0.43,32.66
			c0.01,8.66-0.99,17.48,0.32,25.93c1.3,8.42-0.26,22.92,13.3,20c12.76-2.75,12.39,1.42,12.8,10.84
			c0.58,13.14,10.37,17.87,20.17,9.38c8.35-7.22,22.77-14.36,8.19-29.29c-2.46-2.51-2.23-8.5-1.88-12.77
			c2.41-29.31,6.02-58.55,7.59-87.89c1.63-30.4,0.81-30.45,26.35-16.37l0.06-0.3c2.38,1.39,4.75,2.79,7.13,4.18
			c6.08,5.67,22.27-2.8,19.76,15.51c-2.17,15.8-0.92,32.05-2.6,47.95c-1.44,13.6-4.94,26.98-7.45,40.48
			c-0.81,4.38-3.4,10.24-1.55,12.89c2.9,4.14,9.07,8.57,13.49,8.22c3.33-0.27,7.42-7.43,8.81-12.21
			c2.94-10.11,4.02-20.74,6.55-30.99c0.77-3.11,3.78-5.67,5.76-8.48c1.74,3.16,4.56,6.17,5.03,9.52c1.34,9.39,0.98,19.06,2.83,28.31
			c0.73,3.64,5.47,8.93,8.5,9.02c3.35,0.09,8.75-4.36,9.81-7.87c1.7-5.61,1-12.12,0.52-18.19c-1.61-20.04-10.21-41.66,13.63-55.52
			c1.04-0.6,1.75-3.24,1.37-4.56c-6.52-22.77,4.66-51.95-24.2-66.87c-2.01-1.04-3.64-8.11-2.43-9.28
			c11.34-11.06,8.6-23.18-0.3-32.04c-4.71-4.69-21.72-5.96-22.49-4.16c-4.26,9.87-5.77,21.1-7.01,32
			c-0.42,3.7,4.55,10.86,3.89,11.27c-12.54,7.67-25.55,14.56-38.46,21.62c-11.55-32.48-20.91-65.14-14.38-100.37
			c1.32-7.1-1.32-14.93-2.13-22.43c-8.76-13.33-8.08-25.94-0.23-40.1c8.46-15.26-0.67-27.81-11.86-37.47
			c-4.85-4.19-12.72-4.87-19.22-7.13c0.11-12.17,0.21-24.34,0.32-36.51c23.13-39.31,7.18-76.82-26.87-80.98
			c0.22-7.99-1.27-16.51,0.99-23.88c7.4-24.15-6.2-45.38-28.93-43.43c-23.95,2.05-33.57,32.07-16.3,55.54
			c8.95,12.16,3.6,14.52-6.76,18.09c-6.56,2.26-15.49,5.1-18.02,10.28c-11.89,24.33-22.32,49.4-32.24,74.61
			c-1.62,4.12,0.89,11.06,3.73,15.13c1.05,1.51,8.83-0.81,13.02-2.6c3.88-1.66,7.06-4.94,10.54-7.51
			c18.45,1.17,8.3,13.82,7.35,20.95c-2.86,21.68-7.38,43.14-11.25,64.68c-40.11,3.66-38.17,21.62-35.89,57.6
			c0.2,3.08-2.42,8.88-4.32,9.14c-14.16,1.93-28.47,2.78-42.73,3.97c-2.29-4.25-6.06-8.31-6.64-12.79
			c-5.27-40.51-9.98-81.1-14.86-121.66c0.08-1.67,0.36-3.35,0.22-5c-1.54-18.23-24.14-35.29-3.06-54.86
			c0.5-0.46,0.07-2.22-0.29-3.24c-6.55-18.69-13.16-37.37-19.76-56.04c-3.72-5.63-6.32-12.75-11.4-16.57
			c-8.75-6.58-19.05-11.1-28.7-16.48c-9.32-9.36-11.82-16.23,2.63-24.86c16.41-9.8,18.98-43.27,6.95-60.02
			c-6.86-5.27-13.71-10.54-20.57-15.81c257.39,0,514.78,0.1,772.17-0.32c11.55-0.02,13.84,2.26,13.81,13.81
			c-0.45,201.19-0.33,402.38-0.33,603.57c-7.68-4.28-16.1-13.01-22.89-11.89c-13.93,2.3-23.44-1.24-33.55-9.9
			c-11.76-10.06-25.35-17.96-37.27-27.86c-10.78-8.95-18.69-18.83-7.92-34.3c7.48-10.74,12.23-23.48,17.54-35.61
			c4.95-11.31,10.41-22.71,12.98-34.65c1.52-7.06-3.35-15.26-3.12-22.88c0.24-7.91,3.17-15.75,4.92-23.62
			c3.87,4.28,8.23,8.22,11.53,12.91c11.2,15.95,22.25,31.74,21.17,53.07c-0.28,5.47,5.8,11.25,8.96,16.89
			c3.92-2.89,9.41-4.99,11.39-8.87c2.63-5.15,5.07-12.72,3.17-17.47c-9.47-23.66-20.43-46.73-30.78-70.05
			c-1.34-3.01-4.13-7.59-3.02-9.13c9.51-13.31-2.37-20.36-7.41-29.88c-10.6-20.03-21.9-39.99-29.55-61.2
			c-6.15-17.04-5.98-36.26-11.09-53.8c-5.96-20.42-33.9-30.53-54.86-24.9c-26.37,7.08-28.22,40-18.5,63.87
			c4.76,11.67,9.03,18.94-6.49,25.39c-5.3,2.2-6.99,12.6-10.82,18.96c-8.35,13.86-17.01,27.53-25.55,41.28
			c-1.01-7.22-4.53-15.2-2.61-21.52c9.12-29.92,5.8-59.72,1.72-89.68c-2.51-9.87-5.02-19.74-7.53-29.61
			c-2.68-15.73,10.9-35.94-12.66-45.91c-4.01-1.87-8.02-3.75-12.04-5.62c0.67-10.37,0.47-20.9,2.24-31.08
			c2.49-14.35-2.39-25.77-15.76-28.53c-9.4-1.94-24.57-0.16-29.35,6.01c-5.5,7.12-5.88,22.29-2.2,31.43
			c5.19,12.86,1.97,18.42-7.49,26.49c-10.17,8.67-21.7,19.18-25.45,31.15c-5.22,16.6-3.74,35.31-5.13,53.11
			c1.25,5.27,2.5,10.54,3.75,15.81c-7.02-0.85-14.09-2.58-21.06-2.26c-5.27,0.24-10.42,3.1-15.62,4.79
			c7.62,16.75-6.2,38.18,11.65,52.97c1.84,1.53,1.67,6.93,0.72,10.01c-1.07,3.48-5.78,6.27-5.97,9.54
			c-1.43,24.85-2.15,49.75-3.08,74.63c-0.15,11.21-1.6,22.62,0.16,33.52c0.77,4.78,11.5,12.51,11.95,12.12
			c11.83-10.07,14.28,0.33,16.72,7.79c2.58,7.88,4.6,16.26,4.91,24.5c0.62,15.93,2.45,32.59-1.47,47.57
			c-1.8,6.89-15.57,11.55-24.67,15.41c-13.35,5.67-8.44,12.89-0.45,15.82c12.13,4.45,25.73,7.95,38.35,7.04
			c9.58-0.69,19.64-7.72,27.32-14.42c2.51-2.19-3.01-12.26-2.72-18.63c0.43-9.71,2.72-19.34,4.21-29.01
			c5.37-1.82,13.97-2.17,15.6-5.72c9.87-21.47,4.83-43.65,0.44-65.59c3.29-1.44,6.58-2.87,9.87-4.31
			c4.54,11.03,9.08,22.05,13.62,33.08c0.11,11.34-0.55,22.76,0.71,33.96c0.47,4.18,5.4,11.19,8.34,11.21
			c17.34,0.11,34.7-1.29,52.02-2.6c3.32-0.25,6.5-2.37,9.74-3.63c-3.44-2.23-6.95-4.34-10.29-6.7c-5.91-4.17-16.08-7.85-16.83-12.87
			c-3.5-23.54-4.39-47.46-6.21-71.24c7.07-8.28,13.92-16.77,21.33-24.75c3.31-3.57,7.74-6.11,11.66-9.11
			c2.01,5.93,4.9,11.74,5.78,17.83c0.98,6.78,0.11,13.82,0.09,20.75c-0.07,36.03-0.03,72.06-0.24,108.09
			c-0.04,7.7-2.54,15.71-1.1,23.03c2.05,10.41,8.48,20.07,9.91,30.48c5.4,39.31,10.51,79.05-34.75,101.49
			c-1.52,0.76,0,7.66,0.1,11.69C1583.97,1147.11,1585.34,1149.24,1586.71,1151.37z"/>
		<path style="fill:#FCFCFC;" d="M231.2,686.05c0-82.47,0.49-164.95-0.46-247.42c-0.17-14.54,4.04-15.94,16.85-15.92
			c242.93,0.44,485.87,0.32,728.8,0.32c-22.93,16.42-30.91,40.2-30.96,66.81c-0.02,10.68-4.48,13.81-13.27,16.91
			c-18.09,6.38-35.69,14.13-53.5,21.31c-13.28-8.74-26.56-17.47-39.85-26.21c-8.78,0.57-18.87-1.45-26.09,2.2
			c-18.67,9.43-23.25,30.11-15.03,56.66l-0.03,1.09l0.95,0.53c0,0,0.02,0.33,0.02,0.33c-1.44,2.06-2.89,4.12-4.33,6.18
			c-1.67-0.15-3.35-0.21-5-0.47c-22.74-3.65-22.99-4.06-12.75-17.77c1.17-1.57,0.97-4.15,1.43-6.26
			c2.55-11.67,3.07-24.33,8.12-34.79c7.94-16.44-0.78-24.43-11.93-32.65c-15.94-7.22-31.08-18.23-49.78-5.93
			c-9.48,6.24-21.11,9.31-30.24,15.93c-6.49,4.7-12.03,12.24-15.19,19.7c-8.05,19.03,3.35,34.77,11.99,50.06
			c6.18,10.93,7.04,17.09-5.86,23.47c-24.61,12.17-27.34,22.47-15.91,48.74c8.31,31.42,16.61,62.84,24.92,94.26
			c-0.16,4.53-0.32,9.06-0.48,13.59c-0.11,1.07-0.22,2.15-0.33,3.22c-2.94,7.09-5.88,14.19-8.82,21.28
			c-6.95-7.54-13.9-15.08-20.84-22.62c-4.97-11.88-9.93-23.75-14.9-35.63c2.54-2.58,7.32-5.21,7.26-7.73
			c-0.42-17.37,4.78-37.04-16.27-47.39c-4.64-8.66-9.29-17.33-13.93-25.99c0.49-9.86-14.9-17.87-3.44-29.16
			c0.37-0.36-1.28-2.72-1.93-4.17c-2.89-6.51-7.95-12.95-8.18-19.56c-0.55-15.74-12.08-35.03-25.7-37.59
			c-18.39-3.45-29.54,4.86-35.65,22.35c-6.29,18.01-13.11,35.95-21.43,53.07c-3.19,6.56-11.06,10.91-17.02,16.02
			c-5.78,4.96-15.3,8.52-17.18,14.56c-11.25,36.11-20.76,72.75-30.85,109.22c-0.04,10.2-0.09,20.41-0.13,30.61
			c-3.46,14.53-8.07,28.9-10.05,43.63c-2.09,15.5-7.7,15.71-17.89,6.73c1.39-9.85,4.58-19.89,3.62-29.5
			c-0.85-8.4-6.38-16.32-9.85-24.46c-5.28-18.68-23.38-14.39-35.92-20.04c0.31-3.16-0.29-8.59,1.07-9.13
			c25.31-10.12,9.43-27.45,8.1-42.38c-0.37-4.21,2.01-8.66,3.13-13c3.3-3.52,10.12-8.46,9.36-10.33
			c-11.08-27.4-22.77-54.59-35.4-81.31c-2.13-4.5-10.61-10.14-13.92-8.97c-4.85,1.73-9.43,8.66-10.93,14.23
			c-2.07,7.69,1.92,18.51-2.14,23.87c-9.99,13.23-3.94,23.9-0.65,36.68c2.28,8.86-1.43,19.35-2.96,29.03
			c-0.19,1.24-3.34,2.01-5.12,3c-0.75-1.92-2.2-3.87-2.13-5.76c0.74-21.36-13.16-32.09-29.49-41.14c2.81-7.62,3.84-16.8,8.81-22.55
			c10.47-12.11,9.5-24.69,0.45-34.31c-5.38-5.72-23.14-9.66-24.99-7.05c-6.84,9.61-9.02,22.43-13.63,33.77
			c-2.9,7.15-5.25,16.67-10.9,20.14c-17.33,10.65-35.74,19.16-37.16,43.24C235.61,683.17,232.77,684.57,231.2,686.05z"/>
		<path style="fill:#344C98;" d="M1532.35,917.34c-4.54-11.03-9.08-22.05-13.61-33.08c3.43-3.44,6.86-6.87,10.29-10.31
			c3.87-2.07,9.04-3.19,11.38-6.38c8.16-11.17,17.16-22.32,22.25-34.93c3.32-8.23,0.42-18.96,0.3-28.57
			c0.47-2.54,0.94-5.08,1.4-7.62c8.53-13.75,17.2-27.42,25.55-41.28c3.83-6.36,5.52-16.76,10.82-18.96
			c15.52-6.44,11.25-13.71,6.49-25.39c-9.72-23.87-7.87-56.79,18.5-63.87c20.96-5.63,48.91,4.48,54.86,24.9
			c5.11,17.53,4.94,36.76,11.09,53.8c7.65,21.2,18.95,41.16,29.55,61.2c5.04,9.53,16.93,16.57,7.41,29.88
			c-1.11,1.55,1.68,6.12,3.02,9.13c10.36,23.31,21.31,46.38,30.78,70.05c1.9,4.76-0.54,12.32-3.17,17.47
			c-1.98,3.88-7.46,5.98-11.39,8.87c-3.16-5.64-9.24-11.42-8.96-16.89c1.07-21.33-9.97-37.12-21.17-53.07
			c-3.29-4.69-7.66-8.63-11.53-12.91c-1.75,7.87-4.68,15.7-4.92,23.62c-0.23,7.62,4.64,15.83,3.12,22.88
			c-2.57,11.93-8.03,23.33-12.98,34.65c-5.31,12.13-10.06,24.87-17.54,35.61c-10.78,15.47-2.86,25.35,7.92,34.3
			c11.92,9.9,25.52,17.79,37.27,27.86c10.12,8.66,19.63,12.21,33.55,9.9c6.79-1.12,15.21,7.62,22.89,11.89c0,3.37,0,6.74,0,10.12
			c-6.5,6.88-13.52,13.36-19.36,20.77c-5.7,7.22-9.66,15.82-15.46,22.93c-2.58,3.15-7.83,4.13-11.86,6.09
			c-0.36-4.06-1.5-8.24-0.94-12.17c2.26-15.89-0.49-30.46-13.81-40.21c-10.18-7.45-21.97-12.76-33.22-18.69
			c-12.66-6.68-23.51-13.46-25.27,10.96c-1.93,26.8-16.15,53.1-0.98,80.09c-3.41,4.25-6.14,11.23-10.35,12.29
			c-20.34,5.11-41.09,8.63-61.69,12.72c-0.1-4.04-1.63-10.94-0.1-11.69c45.26-22.44,40.15-62.18,34.75-101.49
			c-1.43-10.41-7.86-20.07-9.91-30.48c-1.44-7.32,1.06-15.33,1.1-23.03c0.21-36.03,0.17-72.06,0.24-108.09
			c0.01-6.93,0.89-13.97-0.09-20.75c-0.88-6.1-3.78-11.9-5.78-17.83c-3.92,3.01-8.34,5.55-11.66,9.11
			c-7.4,7.98-14.25,16.47-21.33,24.75c-6,6.76-12.65,13.07-17.84,20.41C1544.86,895.96,1538.84,906.82,1532.35,917.34z"/>
		<path style="fill:#60AC2B;" d="M878.67,528.07c17.8-7.19,35.41-14.94,53.5-21.31c8.79-3.1,13.25-6.23,13.27-16.91
			c0.05-26.61,8.04-50.4,30.96-66.81c4.5,0,8.99,0,13.49,0c6.86,5.27,13.71,10.54,20.57,15.81c-10.82,15.03-22.1,29.75-32.29,45.2
			c-7,10.61-12.47,22.23-18.62,33.4c0,0-0.01,0.01-0.01,0.01c-7.29,8.44-15.61,16.2-21.62,25.46c-10,15.39-17.76,32.26-27.9,47.54
			c-8.26,12.43-19.37,22.95-27.88,35.24c-10.9,15.74-19.16,33.46-31.06,48.32c-7.95,9.93-12.63,18.02-5.85,29.71
			c-1.26,1.96-2.52,3.92-3.78,5.87c-12.24,3.06-21.47,7.91-26.82,21.56c-5.44,13.89-15.44,26.14-24.37,38.44
			c-4.73,6.52-11.41,11.61-17.21,17.35c-1.04-5.56-1.92-11.17-3.23-16.67c-0.34-1.41-2.07-2.49-3.16-3.73
			c-5.47-7.61-10.93-15.23-16.4-22.84c10.94-20.41,20.86-41.46,33.08-61.07c13.86-22.22,29.82-43.11,44.79-64.64
			c7.6-10.93,21.67-22.48,20.9-32.87c-1.04-13.99,3.16-17.63,13.36-21.57c1.55-0.6,1.93-4.25,2.85-6.49
			c-2.48-0.05-5.04,0.25-7.43-0.26c-1.81-0.39-3.39-1.81-5.08-2.77c6.46-4.91,13.28-9.42,19.22-14.89
			C875,536.36,876.48,531.83,878.67,528.07z"/>
		<path style="fill:#FCFBFB;" d="M1654.64,1119.98c-15.17-27-0.95-53.3,0.98-80.09c1.76-24.42,12.61-17.64,25.27-10.96
			c11.25,5.93,23.03,11.24,33.22,18.69c13.32,9.75,16.07,24.32,13.81,40.21c-0.56,3.93,0.58,8.11,0.94,12.17
			c4.04-1.96,9.28-2.94,11.86-6.09c5.81-7.11,9.77-15.71,15.46-22.93c5.84-7.4,12.86-13.88,19.36-20.77
			c0,30.35-0.36,60.7,0.23,91.04c0.16,8.46-1.91,10.42-10.35,10.35c-51.7-0.45-103.4-0.23-155.11-0.23
			c11.73-4.32,23.36-8.93,35.22-12.87C1655.24,1135.28,1662.33,1131.44,1654.64,1119.98z"/>
		<path style="fill:#439E93;" d="M231.2,686.05c1.56-1.48,4.41-2.88,4.5-4.44c1.42-24.08,19.83-32.6,37.16-43.24
			c5.66-3.47,8-13,10.9-20.14c4.61-11.34,6.79-24.16,13.63-33.77c1.86-2.61,19.61,1.34,24.99,7.05c9.05,9.62,10.02,22.2-0.45,34.31
			c-4.98,5.76-6,14.93-8.81,22.55c-8.9,10.95-19.14,21.09-26.41,33.03c-15.67,25.72-29.82,52.38-44.59,78.65
			c-3.64-15.67-7.28-31.35-10.92-47.02C231.2,704.03,231.2,695.04,231.2,686.05z"/>
		<path style="fill:#2B6181;" d="M1654.64,1119.98c7.7,11.46,0.61,15.31-9.1,18.53c-11.86,3.93-23.49,8.55-35.22,12.87
			c-7.87,0-15.74,0-23.6,0c-1.37-2.13-2.74-4.26-4.11-6.39c20.6-4.08,41.35-7.6,61.69-12.72
			C1648.5,1131.21,1651.23,1124.23,1654.64,1119.98z"/>
		<path style="fill:#378B46;" d="M1040.97,556.77c6.6,18.68,13.21,37.35,19.76,56.04c0.36,1.03,0.78,2.78,0.29,3.24
			c-21.08,19.58,1.52,36.63,3.06,54.86c0.14,1.65-0.14,3.33-0.22,5c-8.29-3.14-13.89-2.28-16.77,7.88
			c-2.4,8.47-7.19,16.27-10.93,24.36c-2.91-6.58-5.49-13.34-8.98-19.59c-0.88-1.58-4.7-1.51-7.17-2.19
			c0.37,2.02,0.73,4.04,1.11,6.06c2.1,11.33,4.2,22.67,6.3,34c-13.41,11.66-28.01,21.88-31.33,41.82c-1,6.04-9.14,10.85-13.87,16.33
			c-1.99,2.3-5.69,5.77-5.08,7.24c3.94,9.46,2.37,12.76-10.72,18.93c-1.9-2.29-3.79-4.58-5.69-6.88c-1.59,3.03-3.66,5.91-4.7,9.12
			c-7.02,21.63-13.83,43.34-20.71,65.02c-2.75-1.98-5.68-3.78-8.17-6.05c-0.93-0.85-0.86-2.8-1.25-4.25
			c-1.1,0.71-3.25,1.75-3.14,2.07c4.32,13.42-28.45,15.48-10.14,33.03c-1.36,1.39-2.99,4.18-4.03,3.97
			c-13.01-2.64-12.41,9.58-17.41,15.58c-0.39-0.4-1.17-0.84-1.12-1.18c5.34-41.38-12.58-80.06-13.97-120.65
			c1.84-18.09,27.28-17.32,28.73-39.38c0.84-12.8,21.9-19.75,27.15-38.11c3.94-13.81,25.19-22.12,22.36-42.35
			c-0.1-0.74,1.16-2.12,2.07-2.48c14.16-5.57,17.13-18.01,20.94-30.98c2.6-8.85,8.29-22.66,14.25-23.57
			c19.49-3,21.04-14.98,21.44-29.81c0.05-1.89,2.53-3.74,3.93-5.58C1024.94,577.77,1032.95,567.27,1040.97,556.77z M1020.24,601.77
			c-0.25,0.44-0.51,0.88-0.76,1.32c0.24-0.45,0.48-0.9,0.73-1.35c0.25-0.44,0.51-0.88,0.76-1.33
			C1020.73,600.86,1020.49,601.32,1020.24,601.77z"/>
		<path style="fill:#2B6181;" d="M1196.17,963.54c-1.31,10.25-0.39,20.57-16.27,21.95c-7.68,0.67-12.35,41.94-6.92,49.37
			c2.76,3.78,4.95,7.97,7.4,11.97c-5.56,1.43-11.19,4.24-16.68,4c-12.71-0.57-25.63-1.51-37.86-4.66
			c-4.75-1.22-10.98-8.63-11.21-13.47c-1.18-24.76-1.81-49.68-0.37-74.41c1.72-29.53,6.22-58.88,8.5-88.39
			c0.88-11.41-1.01-23.04-1.64-34.57c-14.59-2.44-29.18-4.89-43.77-7.33c0,0-0.14,0.01-0.14,0.01c-1.65-1.39-3.31-2.78-4.96-4.17
			c-0.79-0.23-1.24-0.76-1.36-1.57c4.83-3.96,9.65-7.92,14.47-11.88c14.26-1.19,28.57-2.04,42.73-3.97c1.9-0.26,4.51-6.06,4.32-9.14
			c-2.28-35.97-4.23-53.94,35.89-57.59c6.92,4.55,13.84,9.09,20.76,13.63c8.86,14.75,5.35,27.12-6.23,38.95
			c-2.27,2.32-0.57,8.54-0.7,12.96c4.01-0.47,8.26-0.3,11.97-1.63c2.98-1.06,5.3-3.95,7.91-6.03c-1.29,6.03-4.64,12.48-3.51,18.01
			c5.14,24.99,11.55,49.71,17.5,74.53c0.18,12.02,0.37,24.05,0.56,36.07c-12.74-0.1-21.14-3.23-15.73-19.01
			c1.43-4.18,0.05-9.89-1.55-14.36c-1.07-2.99-4.83-5.01-7.38-7.47c-0.99,2.95-3.07,6.01-2.81,8.85
			C1191.2,917.32,1193.75,940.42,1196.17,963.54z"/>
		<path style="fill:#3A8D8B;" d="M242.13,760.05c14.77-26.27,28.92-52.93,44.59-78.65c7.28-11.94,17.52-22.08,26.41-33.03
			c16.32,9.05,30.22,19.78,29.49,41.14c-0.07,1.89,1.38,3.84,2.13,5.76c1.78-0.99,4.92-1.76,5.12-3c1.52-9.68,5.24-20.17,2.96-29.03
			c-3.29-12.78-9.34-23.45,0.65-36.68c4.05-5.37,0.07-16.18,2.14-23.87c1.5-5.57,6.08-12.5,10.93-14.23
			c3.31-1.18,11.79,4.46,13.92,8.97c12.63,26.72,24.32,53.9,35.4,81.31c0.76,1.88-6.06,6.82-9.36,10.33
			c-10.08,7.12-24.04,12.13-29.33,21.86c-7.98,14.64-13.56,28.85-32.58,30.58l0.36-0.63c-0.55-1.37-1.09-2.73-1.64-4.1
			c-0.48-6.23-0.95-12.45-1.43-18.68c-1.9,0.47-5.27,0.6-5.45,1.45c-1.48,6.72-3.79,13.73-3.09,20.36
			c1.06,10.04,4.33,19.85,6.66,29.76c-3.83,6-7.29,12.26-11.54,17.94c-18.36,24.51-38.62,47.82-54.62,73.76
			c-6.34,10.27-10.47,15.59-22,13.51C248.59,836.6,245.36,798.33,242.13,760.05z"/>
		<path style="fill:#F93619;" d="M817.71,882.32c1.18,4.94,1.57,10.25,3.67,14.77c9.99,21.6,5.89,40.9-8.58,58.81
			c-8.68-9.7-17.33-19.43-26.07-29.07c-2.04-2.25-4.44-4.17-6.68-6.25c-0.1,2.64-0.06,5.29-0.31,7.91
			c-1.61,17.06-3.29,34.12-4.95,51.18c-2.82,7.84-5.65,15.68-8.47,23.52c-4.19,4.51-7.99,9.48-12.68,13.4
			c-4.13,3.45-9.24,5.71-13.92,8.5c-8.69-15.66-13.43-2.32-14.57,3.4c-2.08,10.45-8.95,11.05-16.56,12.06
			c-2.06,0.27-5.05-0.81-6.15,0.25c-11.48,10.97-22.67,22.25-33.93,33.45c-0.62-13.68-4.33-28.14-1.13-40.87
			c5.05-20.11,8.87-38.89-1.09-58.35c-1.61-3.14-0.39-7.72-0.48-11.63c-0.69-19.64,5.67-35.97,22.02-47.83
			c11.23-8.15,22.23-16.61,33.4-24.85c20.96-15.46,41.97-30.87,62.95-46.29C795.34,857.07,806.53,869.7,817.71,882.32z"/>
		<path style="fill:#F92616;" d="M1492.83,959.88c-1.5,9.67-3.78,19.3-4.21,29.01c-0.28,6.37,5.23,16.44,2.72,18.63
			c-7.68,6.7-17.74,13.73-27.32,14.42c-12.63,0.91-26.22-2.59-38.35-7.04c-7.99-2.93-12.9-10.15,0.45-15.82
			c9.11-3.87,22.87-8.53,24.67-15.41c3.92-14.98,2.08-31.64,1.47-47.57c-0.32-8.24-2.34-16.62-4.91-24.5
			c-2.44-7.46-4.89-17.86-16.72-7.79c-0.45,0.38-11.18-7.34-11.95-12.12c-1.76-10.9-0.31-22.31-0.16-33.52
			c1.44-0.68,3.96-1.12,4.17-2.07c9.49-43.01,18.62-86.1,28.3-129.07c1.13-4.99,5.16-9.33,7.85-13.98
			c3.42,2.16,6.85,4.32,10.27,6.48c0.73,8.94,5.49,21,1.44,26.21c-11.43,14.7-4.55,20.01,8.13,25.12
			c14.98,5.06,21.93,18.27,30.38,29.95c4.55,10.1,9.1,20.21,13.65,30.31c-7.93,19.04-15.86,38.09-23.79,57.13
			c-1.07,0.04-2.13,0.02-3.19-0.08c-2.04-1.92-4.08-3.84-6.12-5.76c-1.2,5.4-2.4,10.8-3.61,16.2
			C1488.25,919.03,1490.54,939.46,1492.83,959.88z"/>
		<path style="fill:#4B982E;" d="M1040.97,556.77c-8.01,10.5-16.03,21-24.04,31.51c-1.4,1.84-3.88,3.68-3.93,5.58
			c-0.4,14.84-1.95,26.81-21.44,29.81c-5.95,0.92-11.65,14.73-14.25,23.57c-3.81,12.97-6.78,25.41-20.94,30.98
			c-0.91,0.36-2.18,1.74-2.07,2.48c2.83,20.23-18.41,28.54-22.36,42.35c-5.24,18.37-26.3,25.31-27.15,38.11
			c-1.45,22.05-26.89,21.29-28.73,39.38c0.05-13.01-5.36-23.42-11.05-35.2c-7.91-16.37-7.17-36.92-10.13-55.68
			c5.94,2.12,11.99,5.92,17.78,5.55c2.29-0.15,4.13-9.5,5.9-14.76c1.04-3.09,0.72-6.92,2.44-9.45
			c27.73-40.85,54.19-82.7,84.34-121.69c11.72-15.15,15.35-37.1,35.52-45.59c9.65,5.38,19.94,9.9,28.7,16.48
			C1034.65,544.02,1037.25,551.14,1040.97,556.77z"/>
		<path style="fill:#378284;" d="M251.82,874.88c11.53,2.08,15.66-3.24,22-13.51c16-25.95,36.26-49.25,54.62-73.76
			c4.25-5.68,7.71-11.94,11.54-17.94c1.53-9.39,3.06-18.77,4.59-28.16c19.03-1.73,24.61-15.94,32.58-30.58
			c5.3-9.73,19.25-14.74,29.33-21.86c-1.12,4.34-3.5,8.79-3.13,13c1.32,14.93,17.21,32.27-8.1,42.38c-1.36,0.54-0.76,5.97-1.07,9.13
			c-4.46,3.4-8.92,6.8-13.38,10.2c-2.6-6.11-5.21-12.22-7.81-18.33c-2.45,5.88-5.99,11.56-7.16,17.69
			c-3.81,20.08-6.75,40.33-10.03,60.52c-0.47,0.42-0.77,0.94-0.89,1.57l0.3-0.16c-2.25,3.11-4.5,6.21-6.75,9.32
			c-0.87-0.1-1.68,0.07-2.44,0.52c-1.23,0.09-2.47,0.19-3.7,0.28c-30.73,9.85-35.4,36.59-40.73,62.89
			c-10.18,21.47-2.18,42.23,12.84,54.05c10.25,8.07,11.09,13.82,10.7,23.49c-1.01,11.37-2.27,22.72-2.85,34.11
			c-0.14,2.84,1.9,5.8,2.94,8.7c-3.16,0.51-6.32,1.43-9.49,1.47c-14.18,0.19-28.42-0.72-42.52,0.39
			c-16.71,1.32-25.09-5.99-24.69-24.9C249.4,955.21,250.7,915.05,251.82,874.88z"/>
		<path style="fill:#BA6465;" d="M325.15,975.61c0.39-9.67-0.46-15.42-10.7-23.49c-15.02-11.82-23.03-32.59-12.84-54.05
			c1.5,2.92,2.33,7.39,4.66,8.4c3.76,1.64,8.63,0.49,12.82,1.43c7.79,1.75,17.3,8.13,22.79,5.55c14.76-6.94,19.74,8.62,30.25,10.15
			c1.16,0.17,2.74,3.72,2.6,5.58c-1.64,22.28,2.96,28.59,24.14,34.34c4.57,1.24,9.79,3.8,12.5,7.41
			c7.75,10.32,16.25,12.16,26.89,5.17c-1.28,13.1-5.08,26.55-3.31,39.22c3.44,24.63,8.99,49.11,15.64,73.1
			c4.09,14.74,4.1,27.39-7.2,38.12c-4.03,3.82-10.63,8.6-14.83,7.63c-4.88-1.13-8.39-8.11-12.5-12.55
			c-1.19-2.31-2.38-4.62-3.58-6.92c0,0,0.11,0.03,0.12,0.02c5.61-6.29,7.39-11.61-3.47-13.72c0,0,0.57,0.01,0.57,0.01
			c-1.24-4.97-1.14-10.93-3.96-14.73c-8.22-11.11-23.54-20.57-25.07-32.14c-2.1-15.88-14.43-18.51-21.34-27.56
			c0,0,0.01,0.01,0.01,0.01c-7.73-6.74-15.45-13.48-23.18-20.22C332.49,996.14,328.82,985.87,325.15,975.61z"/>
		<path style="fill:#FA6824;" d="M750.26,743.73c5.47,7.61,10.93,15.23,16.4,22.84c-1.1,10.26-2.2,20.51-3.31,30.77
			c-13.1-4.78-24.28-5.54-27.73,12.16c-0.42,2.17-3.08,4.3-5.2,5.67c-7.71,4.96-15.79,9.34-23.42,14.4
			c-6.69,4.43-12.48,10.47-19.58,13.94c-5.17,2.53-1.96,16.46-14.71,9.99c-2.12-1.08-11.36,11.86-17.3,18.31
			c-3.15-2.04-6.3-4.09-9.45-6.13c-1.1,3.87-2.07,7.79-3.32,11.61c-1.41,4.32-2.07,9.4-4.83,12.64c-5.71,6.73-12.6,12.47-19,18.62
			c-18.77,12.83-38.1,24.92-56.15,38.7c-19.6,14.96-26.26,16-35.25,1.53c-3.16-15.66-6.32-31.32-9.48-46.98
			c3.15,1.99,8.53,6.2,9.12,5.61c6.37-6.36,11.37-14.15,17.99-20.18c5.44-4.96,12.14-9.53,19.08-11.55
			c6.01-1.75,14.78-2.52,19.36-5.99c14.95-11.31,30.65-21.73,44.72-34.04c14.3-12.51,26.86-26.98,40.47-40.31
			c4.37-4.28,9.63-7.65,14.48-11.44c-2.25,9.5-5.26,18.94-6.08,28.57c-0.16,1.85,8.27,4.43,12.73,6.67
			c4.25-12.41,19.03-19.13,14.97-36.73C698.29,754.32,719.77,730.71,750.26,743.73z"/>
		<path style="fill:#FCB93A;" d="M464.41,746.61c10.09-36.47,19.61-73.11,30.85-109.22c1.88-6.04,11.41-9.6,17.18-14.56
			c5.95-5.11,13.83-9.47,17.02-16.02c8.32-17.13,15.14-35.06,21.43-53.07c6.11-17.49,17.26-25.8,35.65-22.35
			c13.62,2.56,25.15,21.84,25.7,37.59c0.23,6.61,5.29,13.05,8.18,19.56c0.64,1.45,2.29,3.81,1.93,4.17
			c-11.46,11.29,3.93,19.3,3.44,29.16c-10.04,4.98-20.77,8.94-29.94,15.2c-9.49,6.48-17.22,15.48-26.18,22.83
			c-6.32,5.18-13.81,8.96-20.01,14.25c-6.87,5.87-12.54,13.15-19.39,19.05c-4.52,3.89-10.93,9.81-15.24,8.9
			c-10.71-2.26-7.7,1.38-4.78,6.98c1.45,2.78,2.25,5.89,3.34,8.85c-3.2,2.85-6.4,5.71-9.59,8.56
			C487.6,726.91,474.09,732.99,464.41,746.61z M581.78,644.71c0.43-0.23,0.85-0.46,1.28-0.69c-0.37-0.31-0.72-0.83-1.11-0.86
			c-0.4-0.04-0.85,0.4-1.27,0.64C581.04,644.1,581.41,644.41,581.78,644.71z"/>
		<path style="fill:#71316A;" d="M1216.01,890.09c-5.95-24.82-12.36-49.54-17.5-74.53c-1.14-5.53,2.22-11.98,3.51-18.01
			c22.43-30.86,48.23-59.6,55.64-99.21c1.56-8.33,9.86-15.4,15.05-23.05c6.5,2.27,14.37,2.96,19.22,7.14
			c11.19,9.66,20.31,22.22,11.86,37.47c-7.85,14.16-8.53,26.77,0.23,40.1c-4.32,4.21-11.09,7.72-12.52,12.75
			c-4.79,16.86-6.56,34.6-11.54,51.39c-7.42,25.02-16.52,49.54-25.05,74.22c-2.63,7.61-6.26,14.9-8.43,22.62
			c-4.81,17.07-8.99,34.33-13.43,51.51c-0.11-10.89,0.17-21.8-0.43-32.66c-0.77-13.95-1.46-28.02-3.97-41.7
			C1228.02,894.78,1220.4,892.73,1216.01,890.09z"/>
		<path style="fill:#2D726A;" d="M1085.36,810.37c-4.82,3.96-9.64,7.92-14.47,11.88c-8.74-8.23-17.47-16.45-26.21-24.68
			c-2.53,12.39-6.02,24.67-7.3,37.19c-1.2,11.73,2.53,23.75-9.47,33.2c-3.23,2.54-2.31,13.13-0.35,19.06
			c9.93,29.97,3.32,59.5-0.87,89.17c-0.69-6.25-2.12-12.53-1.93-18.75c0.48-16.38,1.81-32.73,2.38-49.11
			c0.06-1.82-2.58-3.73-3.97-5.6c-11.24,11.28-22.48,22.57-33.72,33.85c-1.05-1.2-3.09-2.48-3.01-3.6
			c2.6-33.35-5.63-65.17-13.52-97.03c-2.08-8.41-4.34-16.79-6.52-25.18c13.09-6.17,14.67-9.47,10.72-18.93
			c-0.61-1.47,3.1-4.94,5.08-7.24c4.73-5.49,12.86-10.29,13.87-16.33c3.32-19.94,17.93-30.17,31.33-41.82
			c2.81,15.75,5.56,31.5,8.46,47.23c0.6,3.25,1.72,6.4,2.61,9.6c1.91-2.88,3.99-5.67,5.71-8.67c13.87-24.13,1.17-45.08-8.04-66.44
			c3.73-8.09,8.53-15.89,10.93-24.36c2.88-10.16,8.48-11.02,16.77-7.88c4.88,40.56,9.59,81.15,14.86,121.66
			C1079.3,802.06,1083.07,806.12,1085.36,810.37z"/>
		<path style="fill:#E97B4B;" d="M438.26,976.1c-10.64,6.98-19.14,5.15-26.89-5.17c-2.71-3.61-7.93-6.17-12.5-7.41
			c-21.19-5.75-25.78-12.06-24.14-34.34c0.14-1.87-1.44-5.42-2.6-5.58c-10.5-1.53-15.49-17.09-30.25-10.15
			c-5.49,2.58-14.99-3.79-22.79-5.55c-4.19-0.94-9.06,0.21-12.82-1.43c-2.33-1.01-3.15-5.48-4.66-8.4
			c5.33-26.3,9.99-53.04,40.73-62.89c0.67,1.28,1.33,2.57,2,3.85c0.56-1.38,1.13-2.76,1.69-4.13c0.76-0.44,1.57-0.62,2.44-0.52
			c3.59,0.1,7.18,0.21,10.76,0.31c6.48,4.6,12.9,9.28,19.44,13.77c17.67,12.13,36.44,4.14,54.84,2.85
			c1.66,9.13,4.23,26.3,4.86,26.23c21.41-2.41,8.91,11.13,9.08,18.32c-0.62,11.31-0.65,22.7-2.01,33.92
			C443.58,945.28,440.7,960.66,438.26,976.1z"/>
		<path style="fill:#439E93;" d="M1189.05,753.29c-6.92-4.54-13.84-9.09-20.76-13.63c3.87-21.55,8.38-43.01,11.25-64.68
			c0.94-7.14,11.1-19.79-7.35-20.96c11.62-42.1,40.37-71.02,73.97-96.22c34.06,4.16,50,41.67,26.87,80.99
			c-4.99,8.21-9.4,16.84-15.08,24.53c-16.01,21.69-32.5,43.02-48.87,64.44C1202.5,736.34,1195.73,744.78,1189.05,753.29z"/>
		<path style="fill:#912D53;" d="M1233.04,972.48c4.44-17.18,8.62-34.43,13.43-51.51c2.18-7.72,5.81-15.01,8.43-22.62
			c8.52-24.69,17.63-49.21,25.05-74.22c4.98-16.79,6.75-34.52,11.54-51.39c1.43-5.03,8.2-8.54,12.52-12.75
			c0.81,7.49,3.44,15.33,2.13,22.43c-6.53,35.23,2.83,67.9,14.38,100.37c-0.21,3.17-0.42,6.34-0.63,9.52
			c-25.54-14.08-24.72-14.04-26.35,16.37c-1.57,29.35-5.19,58.58-7.59,87.89c-0.35,4.27-0.57,10.25,1.88,12.77
			c14.58,14.93,0.16,22.06-8.19,29.29c-9.8,8.49-19.59,3.75-20.17-9.38c-0.42-9.42-0.04-13.59-12.8-10.84
			c-13.57,2.93-12-11.58-13.3-20C1232.05,989.96,1233.05,981.14,1233.04,972.48z"/>
		<path style="fill:#56A42C;" d="M1000.87,523.73c-20.17,8.49-23.8,30.43-35.52,45.59C935.2,608.3,908.74,650.15,881.01,691
			c-1.72,2.53-1.4,6.36-2.44,9.45c-1.78,5.25-3.61,14.61-5.9,14.76c-5.78,0.37-11.83-3.42-17.78-5.55
			c-3.22-1.97-6.44-3.95-9.67-5.92c-6.78-11.69-2.1-19.78,5.85-29.71c11.9-14.86,20.16-32.58,31.06-48.32
			c8.51-12.29,19.62-22.81,27.88-35.24c10.15-15.28,17.9-32.15,27.9-47.54c6.02-9.26,14.34-17.02,21.62-25.46
			c0.45,0.25,0.9,0.49,1.35,0.74c-0.45-0.25-0.89-0.5-1.34-0.75c6.15-11.17,11.62-22.79,18.62-33.4
			c10.19-15.45,21.47-30.17,32.29-45.2c12.03,16.74,9.47,50.22-6.95,60.02C989.05,507.49,991.55,514.37,1000.87,523.73z"/>
		<path style="fill:#CE2730;" d="M1319.89,892.32c0.21-3.17,0.42-6.35,0.63-9.52c12.92-7.05,25.93-13.95,38.47-21.62
			c0.66-0.4-4.31-7.57-3.89-11.27c1.24-10.9,2.75-22.13,7.01-32c0.78-1.8,17.79-0.52,22.49,4.16c8.9,8.86,11.63,20.98,0.3,32.04
			c-1.21,1.18,0.42,8.24,2.43,9.28c28.86,14.92,17.68,44.1,24.2,66.87c0.38,1.33-0.34,3.96-1.37,4.56
			c-23.83,13.86-15.23,35.47-13.63,55.52c0.49,6.07,1.18,12.58-0.52,18.19c-1.06,3.51-6.47,7.96-9.81,7.87
			c-3.03-0.08-7.77-5.37-8.5-9.02c-1.85-9.25-1.49-18.92-2.83-28.31c-0.48-3.34-3.29-6.35-5.03-9.52c-1.98,2.81-4.99,5.37-5.76,8.48
			c-2.53,10.25-3.61,20.88-6.55,30.99c-1.39,4.78-5.48,11.95-8.81,12.21c-4.42,0.35-10.59-4.08-13.49-8.22
			c-1.85-2.65,0.74-8.51,1.55-12.89c2.51-13.49,6.01-26.87,7.45-40.48c1.69-15.9,0.43-32.15,2.6-47.95
			c2.51-18.31-13.68-9.84-19.76-15.51c-2.38-1.4-4.75-2.79-7.13-4.18L1319.89,892.32z"/>
		<path style="fill:#FD7725;" d="M683.14,783.9c-4.85,3.79-10.11,7.16-14.48,11.44c-13.6,13.33-26.17,27.8-40.47,40.31
			c-14.06,12.31-29.77,22.73-44.72,34.04c-4.58,3.47-13.35,4.24-19.36,5.99c-6.94,2.02-13.63,6.59-19.08,11.55
			c-6.62,6.03-11.63,13.82-17.99,20.18c-0.59,0.58-5.97-3.63-9.12-5.61c-4.71-10.8-9.42-21.6-14.12-32.4
			c2.65-5.51,5.29-11.02,7.94-16.52c5.17,13.63,8.2,2.33,12.62-0.77c9.59-6.74,21.31-11.26,29.11-19.55
			c11.12-11.82,33.66-11.33,35.46-32.88c0.03-0.4,1.75-0.67,2.67-1c0.88,2.83,1.77,5.66,2.65,8.49c0.39-3.28,0.63-6.58,1.26-9.82
			c0.2-1.02,1.42-1.84,2.18-2.76c5.97,24.96,4.61-12.49,9-1.06c18.98-18.31,37.96-36.63,56.94-54.94
			c6.95,7.54,13.9,15.08,20.83,22.62c0.35,4.27,0.72,8.54,1.09,12.82c-0.82,3.3-1.64,6.6-2.46,9.9
			C683.09,783.93,683.14,783.9,683.14,783.9z"/>
		<path style="fill:#FD862A;" d="M663.64,738.6c-18.98,18.31-37.96,36.63-56.94,54.94c-4.38-11.44-3.02,26.02-9,1.06
			c-0.76,0.91-1.98,1.74-2.18,2.76c-0.63,3.23-0.87,6.54-1.26,9.82c-0.88-2.83-1.77-5.66-2.65-8.49c-0.93,0.33-2.64,0.59-2.67,1
			c-1.8,21.56-24.34,21.06-35.46,32.88c-7.8,8.29-19.51,12.81-29.11,19.55c-4.42,3.1-7.46,14.4-12.62,0.77
			c-2.65,5.51-5.29,11.01-7.94,16.52c0.24-21.79,0.48-43.58,0.72-65.37c6.83-2.92,14.76-9.64,20.27-8.04
			c15.95,4.63,19.05-5.91,23.86-15.82c1.18-2.43,2.16-5.35,4.12-6.92c17.41-13.99,34.4-28.62,52.76-41.25
			c14.28-9.81,20.13-32.44,43.2-29.04C653.7,714.84,658.67,726.72,663.64,738.6z"/>
		<path style="fill:#FA5722;" d="M655.41,871.81c5.95-6.46,15.18-19.39,17.3-18.31c12.75,6.47,9.54-7.46,14.71-9.99
			c7.1-3.47,12.89-9.51,19.58-13.94c7.63-5.06,15.71-9.44,23.42-14.4c2.12-1.37,4.78-3.5,5.2-5.67
			c3.45-17.69,14.63-16.94,27.73-12.16c5.05,12.62,10.11,25.25,15.16,37.87c1.88,3.08,3.76,6.15,5.64,9.23
			c-20.99,15.43-41.99,30.83-62.95,46.3c-11.17,8.24-22.17,16.7-33.4,24.85c-16.34,11.86-22.71,28.19-22.02,47.83
			c-1.1-17.03-1.64-34.13-3.48-51.08C660.83,898.74,657.77,885.31,655.41,871.81z"/>
		<path style="fill:#FA5722;" d="M527.41,948.78c8.99,14.47,15.66,13.43,35.25-1.53c18.05-13.78,37.38-25.87,56.15-38.7
			c-3.57,19-7.13,38-10.7,57c-4.71,2.65-9.85,4.76-14,8.09c-3.8,3.05-14.62,4.84-4.33,12.96c-4.51,4.86-8.42,13.01-13.63,13.96
			c-14.7,2.67-24.87,18.51-18.31,32.3c0.58,1.22,2.68,3.02,3.19,2.77c12.5-6.19,18.53,1.51,23.87,10.83
			c-1.79,5.94-4.64,11.79-5.16,17.85c-1.83,21.02-2.85,42.12-4.18,63.19c0.88-8.44,2.36-16.89,2.45-25.35
			c0.06-5.7-0.4-12.45-3.44-16.73c-1.65-2.32-9.48-1.49-14.01-0.22c-7.21,2.01-14,5.57-20.96,8.47
			C535.53,1045.37,531.47,997.08,527.41,948.78z"/>
		<path style="fill:#FC972E;" d="M648.74,702.97c-23.07-3.4-28.92,19.22-43.2,29.04c-18.37,12.62-35.36,27.26-52.76,41.25
			c-1.97,1.58-2.95,4.5-4.12,6.92c-4.8,9.91-7.91,20.45-23.86,15.82c-5.51-1.6-13.44,5.12-20.27,8.04c2.34-13.5,4.68-27,7.02-40.5
			c0.38-0.3,1.11-0.67,1.07-0.89c-0.16-0.81-0.58-1.57-0.9-2.35c0.04-2.25,0.09-4.51,0.13-6.76c5.93-1.32,13.53-0.74,17.51-4.27
			c24.26-21.48,47.66-43.95,71.44-65.98c12.87-11.92,25.94-23.64,38.92-35.44c21.05,10.35,15.86,30.02,16.27,47.39
			C656.05,697.76,651.28,700.39,648.74,702.97z"/>
		<path style="fill:#4DB8A1;" d="M1246.15,557.79c-33.59,25.2-62.35,54.12-73.97,96.22c-3.49,2.57-6.67,5.86-10.55,7.52
			c-4.19,1.79-11.96,4.11-13.02,2.6c-2.84-4.07-5.35-11.01-3.73-15.13c9.91-25.22,20.35-50.29,32.24-74.61
			c2.53-5.18,11.46-8.02,18.02-10.28c10.36-3.56,15.71-5.92,6.76-18.09c-17.27-23.47-7.65-53.48,16.3-55.54
			c22.73-1.95,36.33,19.28,28.93,43.43C1244.89,541.28,1246.38,549.8,1246.15,557.79z"/>
		<path style="fill:#FDA834;" d="M639.72,647.85c-12.98,11.81-26.05,23.52-38.92,35.44c-23.78,22.03-47.17,44.49-71.44,65.98
			c-3.98,3.52-11.58,2.95-17.51,4.27c0.58-11.88,1.15-23.75,1.73-35.63c-1.1-2.96-1.9-6.07-3.34-8.85
			c-2.92-5.59-5.93-9.24,4.78-6.98c4.31,0.91,10.72-5,15.24-8.9c6.85-5.9,12.52-13.18,19.39-19.05c6.21-5.3,13.7-9.07,20.01-14.25
			c8.95-7.35,16.69-16.34,26.18-22.83c9.16-6.26,19.9-10.23,29.94-15.2C630.43,630.52,635.08,639.19,639.72,647.85z"/>
		<path style="fill:#2D726A;" d="M891.16,922.37c5.01-6.01,4.4-18.22,17.41-15.58c1.03,0.21,2.67-2.57,4.03-3.97
			c-18.32-17.55,14.45-19.61,10.14-33.03c-0.1-0.32,2.05-1.36,3.14-2.07c0.39,1.45,0.32,3.4,1.25,4.25
			c2.49,2.27,5.42,4.07,8.17,6.05c-1.87,34.47-5.17,68.94-5.04,103.4c0.07,18.58,6.72,37.06,8.92,55.75c0.72,6.16-2.45,18-5.16,18.4
			c-10.61,1.59-21.8,0-32.62-1.46c-1.34-0.18-3.65-7.59-2.42-10.2c17.49-37.3,3.4-72.67-5.83-108.4
			C892.05,931.25,891.8,926.76,891.16,922.37z"/>
		<path style="fill:#2B6181;" d="M989.45,936.58c11.24-11.28,22.48-22.57,33.72-33.85c1.39,1.87,4.03,3.78,3.97,5.6
			c-0.57,16.38-1.89,32.73-2.38,49.11c-0.18,6.23,1.24,12.5,1.93,18.75c-0.06,1.08-0.12,2.16-0.17,3.24
			c-0.06,6.7-0.12,13.4-0.18,20.1c7.37,5.69,15.12,10.96,21.99,17.2c6.81,6.18,12.74,13.35,19.06,20.08
			c-7.15,4.56-14,9.75-21.56,13.48c-5.74,2.84-12.94,2.8-18.54,5.82c-20.77,11.21-30.51,6.55-30.78-16.04
			c-0.29-23.76,0.82-47.56-0.17-71.27C995.88,957.98,991.85,947.31,989.45,936.58z"/>
		<path style="fill:#FCB93A;" d="M1448.1,692.68c1.39-17.8-0.08-36.51,5.13-53.11c3.76-11.96,15.28-22.47,25.45-31.15
			c9.46-8.07,12.68-13.63,7.49-26.49c-3.69-9.14-3.31-24.31,2.2-31.43c4.77-6.17,19.94-7.96,29.35-6.01
			c13.37,2.76,18.25,14.18,15.76,28.53c-1.77,10.18-1.56,20.71-2.24,31.09c-21.9-1.28-26.9,18.65-37.72,30.77
			c-8.68,9.72-14.97,21.53-22.99,31.89C1463.54,675.78,1455.61,684.07,1448.1,692.68z"/>
		<path style="fill:#FC972E;" d="M1478.64,770.86c-12.67-5.1-19.56-10.41-8.13-25.12c4.05-5.21-0.7-17.27-1.44-26.21
			c9.06-15.14,15.92-32.33,27.67-44.96c18.45-19.82,37.84-38.29,46.53-64.86c23.56,9.97,9.98,30.18,12.66,45.91
			c-2.42,1.71-5.81,2.89-7.08,5.22c-5.59,10.22-9.75,21.29-15.98,31.06c-6.7,10.5-15.29,19.78-22.7,29.85
			c-1.5,2.05-0.84,7.3-2.12,7.66C1486.82,735.3,1486.36,755.64,1478.64,770.86z"/>
		<path style="fill:#FD862A;" d="M1478.64,770.86c7.72-15.22,8.18-35.56,29.41-41.43c1.28-0.35,0.61-5.61,2.12-7.66
			c7.4-10.08,16-19.35,22.7-29.85c6.24-9.77,10.4-20.84,15.98-31.06c1.28-2.33,4.67-3.51,7.08-5.22c2.51,9.87,5.02,19.74,7.53,29.61
			c-0.08,18.19-0.58,35.98-21.25,44.68c-3.24,1.36-7.36,6.41-7.1,9.4c2.21,25.33-15.05,42.03-26.09,61.48
			C1500.57,789.13,1493.62,775.92,1478.64,770.86z"/>
		<path style="fill:#F93619;" d="M584.89,1046.46c-5.34-9.33-11.37-17.03-23.87-10.83c-0.51,0.25-2.61-1.55-3.19-2.77
			c-6.56-13.79,3.61-29.63,18.31-32.3c5.22-0.95,9.13-9.1,13.63-13.96c-10.29-8.12,0.53-9.91,4.33-12.96
			c4.15-3.34,9.29-5.44,14-8.09c3.85,14.01,9.08,27.83,11.11,42.11c1.54,10.86-1.71,22.32-1.46,33.48
			c0.21,9.2,4.85,18.85,3.12,27.41c-1.81,8.95-7.01,19.75-14.18,24.39c-7.99,5.16-17.59,0.79-18.48-11.65
			c-0.67-11.31-1.34-22.61-2.01-33.92C585.47,1047.5,585.03,1047.2,584.89,1046.46z"/>
		<path style="fill:#56A42C;" d="M778.51,835.21c-5.05-12.62-10.11-25.25-15.16-37.87c1.1-10.26,2.21-20.51,3.31-30.77
			c1.09,1.23,2.82,2.31,3.16,3.73c1.32,5.5,2.19,11.1,3.23,16.67c5.8-5.74,12.48-10.84,17.21-17.35
			c8.92-12.3,18.93-24.56,24.37-38.44c5.35-13.65,14.58-18.5,26.82-21.56c-0.26,13.56-0.53,27.11-0.79,40.67
			c-0.31,0.37-0.95,0.89-0.86,1.08c0.36,0.77,0.94,1.44,1.44,2.15c0,4.47,0,8.95,0,13.43c-9.72,11.56-19.22,23.33-29.22,34.64
			C801.52,813.43,803.03,837.33,778.51,835.21z"/>
		<path style="fill:#F92616;" d="M668.5,1074.26c11.27-11.2,22.45-22.48,33.93-33.45c1.11-1.06,4.09,0.03,6.15-0.25
			c7.61-1.01,14.48-1.61,16.56-12.06c1.14-5.73,5.88-19.06,14.57-3.4c4.68-2.79,9.79-5.05,13.92-8.5c4.69-3.91,8.49-8.88,12.68-13.4
			c0.26,20.96,4.93,42.59-7.29,61.83c-2.37,3.73-12,5.31-11.95,7.75c0.43,20.52-15.98,14.93-26.57,18.26
			c-1.23-9.99-2.45-19.98-3.68-29.96c-5.51,9.59-11.13,19.13-16.48,28.81c-1.81,3.28-2,8.46-4.6,10.07
			c-4.27,2.65-10.24,4.81-14.85,3.9c-3.32-0.66-6.58-6.27-8.08-10.34C670.55,1087.39,669.86,1080.7,668.5,1074.26z M728.2,1032.46
			c-0.16,0.45-0.32,0.9-0.48,1.35c0.39,0.14,1.04,0.49,1.14,0.38c0.29-0.34,0.48-0.86,0.46-1.31
			C729.32,1032.73,728.59,1032.6,728.2,1032.46z"/>
		<path style="fill:#3A8D8B;" d="M1189.05,753.29c6.68-8.51,13.45-16.95,20.02-25.54c16.38-21.42,32.87-42.75,48.87-64.44
			c5.68-7.7,10.09-16.33,15.08-24.53c-0.11,12.17-0.21,24.35-0.32,36.51c-5.2,7.64-13.49,14.71-15.05,23.04
			c-7.42,39.62-33.21,68.36-55.64,99.21c-2.62,2.08-4.94,4.97-7.92,6.03c-3.71,1.33-7.96,1.15-11.97,1.63
			c0.13-4.42-1.58-10.64,0.7-12.96C1194.41,780.41,1197.92,768.05,1189.05,753.29z"/>
		<path style="fill:#FD7725;" d="M1509.02,800.81c11.04-19.45,28.3-36.16,26.09-61.48c-0.26-2.99,3.86-8.04,7.1-9.4
			c20.67-8.7,21.17-26.49,21.25-44.68c4.09,29.97,7.4,59.76-1.72,89.68c-1.93,6.32,1.6,14.3,2.61,21.52
			c-0.47,2.54-0.93,5.08-1.4,7.62c-7.18,7.25-19.61,13.97-20.41,21.87c-1.57,15.55-4.76,13.6-13.31,5.31
			c-2.19-0.04-4.37-0.08-6.56-0.13C1518.12,821.02,1513.57,810.91,1509.02,800.81z"/>
		<path style="fill:#FC972E;" d="M433.52,851.3c-18.4,1.3-37.16,9.29-54.84-2.85c-6.55-4.49-12.97-9.17-19.44-13.77
			c8.07-2.94,15.93-6.79,24.24-8.6c11.45-2.49,25.05,0.79,31.59-13.66c0.12-0.28,10.29,3.16,15,6.1c2.86,1.79,4.22,5.96,6.26,9.06
			c10.19,8.98,15.8,8.78,17.89-6.73c1.99-14.73,6.6-29.1,10.05-43.63c8.05,3.45,16.09,6.89,24.14,10.34
			c0.65,13.38,1.31,26.75,1.96,40.13c-7.49,1.05-15.73,0.47-22.29,3.51C456.05,836.77,444.99,844.48,433.52,851.3z"/>
		<path style="fill:#912D53;" d="M359.33,1026.6c6.91,9.05,19.25,11.68,21.34,27.56c1.53,11.56,16.85,21.03,25.07,32.14
			c2.81,3.8,2.72,9.76,3.96,14.73c-11.66-7.55-16.89-4.74-16.56,9.49c0.14,5.92-0.52,12.8-3.52,17.54
			c-2.34,3.7-8.88,6.47-13.51,6.41c-3.53-0.05-10.27-5.56-9.99-8.01c4.62-40.61-25.86-71.8-28.97-110.16
			c-0.27-3.3-0.65-6.6-0.98-9.9c7.73,6.74,15.45,13.48,23.18,20.22c-0.26,0.47-0.53,0.94-0.79,1.4
			C358.81,1027.55,359.07,1027.08,359.33,1026.6z"/>
		<path style="fill:#378B46;" d="M774.79,979.68c1.66-17.06,3.33-34.11,4.95-51.18c0.25-2.62,0.22-5.27,0.31-7.91
			c2.24,2.07,4.64,4,6.68,6.25c8.75,9.64,17.39,19.37,26.07,29.07c-7.14,31.85-9.94,63.67-2.15,96c0.86,3.57-5.6,12.56-8.83,12.65
			c-5.98,0.16-16.48-3.37-17.39-7.2c-3.94-16.58-5.26-33.81-7.19-50.84c-0.91-8-1.03-16.09-1.52-24.13
			C775.51,981.45,775.2,980.55,774.79,979.68z"/>
		<path style="fill:#FDA834;" d="M1543.28,609.72c-8.68,26.57-28.08,45.04-46.53,64.86c-11.76,12.63-18.62,29.81-27.67,44.96
			c-3.42-2.16-6.85-4.32-10.27-6.49c-2.32-1.52-4.64-3.04-6.96-4.56c-1.25-5.27-2.5-10.54-3.75-15.81
			c7.51-8.61,15.44-16.89,22.42-25.91c8.02-10.36,14.31-22.17,22.99-31.89c10.82-12.12,15.83-32.05,37.72-30.77
			C1535.26,605.97,1539.27,607.85,1543.28,609.72z"/>
		<path style="fill:#4B982E;" d="M778.51,835.21c24.51,2.12,23.01-21.78,33.49-33.64c10-11.31,19.5-23.07,29.22-34.64
			c5.51,10.26,9.98,21.29,16.83,30.56c7.4,10.02,3.94,14.25-5.55,18.43c-11.3,4.97-22.84,10.21-15.45,26.53
			c0.62,1.36-1.74,5.87-3.12,6.06c-22.6,3.2-13.46,21.34-16.22,33.81c-11.18-12.63-22.37-25.25-33.55-37.88
			C782.28,841.36,780.4,838.29,778.51,835.21z"/>
		<path style="fill:#FA5722;" d="M1532.35,917.34c6.49-10.52,12.51-21.38,19.64-31.46c5.19-7.34,11.84-13.64,17.84-20.41
			c1.82,23.79,2.72,47.71,6.21,71.24c0.75,5.02,10.91,8.69,16.83,12.87c3.34,2.36,6.86,4.48,10.29,6.7
			c-3.24,1.26-6.42,3.38-9.74,3.63c-17.32,1.31-34.68,2.71-52.02,2.6c-2.93-0.02-7.87-7.03-8.34-11.21
			C1531.8,940.1,1532.46,928.68,1532.35,917.34z"/>
		<path style="fill:#CE2730;" d="M774.79,979.68c0.41,0.87,0.72,1.77,0.93,2.71c-1.86,7.92-5.13,15.8-5.34,23.76
			c-0.88,34.7-0.4,69.44-1.45,104.14c-0.37,12.29,3.23,28.63-18.6,28.15c-19.34-0.43-28.69-8.56-30.26-28.98
			c-0.47-6.1,0.25-12.29,0.43-18.43c10.6-3.32,27,2.27,26.57-18.25c-0.05-2.44,9.58-4.01,11.95-7.75
			c12.23-19.24,7.55-40.87,7.29-61.83C769.14,995.36,771.96,987.52,774.79,979.68z"/>
		<path style="fill:#CE2730;" d="M1451.85,708.49c2.32,1.52,4.64,3.04,6.96,4.56c-2.68,4.64-6.72,8.98-7.85,13.98
			c-9.68,42.97-18.81,86.06-28.3,129.07c-0.21,0.95-2.73,1.39-4.17,2.07c0.94-24.88,1.65-49.77,3.08-74.63
			c0.19-3.26,4.89-6.05,5.97-9.54c0.95-3.08,1.13-8.48-0.72-10.01c-17.85-14.79-4.03-36.22-11.65-52.97
			c5.2-1.69,10.35-4.55,15.62-4.79C1437.76,705.92,1444.83,707.64,1451.85,708.49z"/>
		<path style="fill:#FD862A;" d="M433.52,851.3c11.47-6.82,22.52-14.53,34.57-20.11c6.56-3.04,14.81-2.46,22.29-3.51
			c5.73,33.51-8.2,55.62-42.93,68.17c-0.16-7.19,12.33-20.73-9.07-18.32C437.76,877.61,435.19,860.44,433.52,851.3z"/>
		<path style="fill:#F93619;" d="M539.59,1093.66c6.97-2.9,13.75-6.46,20.96-8.47c4.53-1.26,12.36-2.09,14.01,0.22
			c3.04,4.28,3.5,11.03,3.44,16.73c-0.09,8.46-1.56,16.91-2.45,25.35c-2.23,3.51-4.18,9.82-6.74,10.07
			c-10.88,1.07-21.95,0.35-32.94,0.29c1.09-6.5,2.09-13.03,3.31-19.51c0.5-2.65,1.47-5.22,2.22-7.82c-0.68-3.1-1.36-6.21-2.04-9.32
			C539.44,1098.69,539.51,1096.18,539.59,1093.66z"/>
		<path style="fill:#FDA834;" d="M488.42,787.56c-8.05-3.45-16.09-6.89-24.14-10.34c0.04-10.2,0.09-20.41,0.13-30.61
			c9.68-13.62,23.19-19.7,39.58-20.13C498.8,746.84,493.61,767.2,488.42,787.56z"/>
		<path style="fill:#FA6824;" d="M1495.69,888.17c1.06,0.1,2.13,0.12,3.19,0.08c3.33,0.11,6.65,0.22,9.98,0.33
			c4.39,21.94,9.43,44.12-0.44,65.59c-1.63,3.55-10.22,3.89-15.6,5.72c-2.29-20.42-4.57-40.85-6.87-61.27
			C1489.2,895.13,1492.44,891.65,1495.69,888.17z"/>
		<path style="fill:#378284;" d="M1196.17,963.54c-2.42-23.12-4.97-46.22-7.09-69.36c-0.26-2.84,1.82-5.89,2.81-8.85
			c2.55,2.46,6.3,4.48,7.38,7.47c1.61,4.46,2.99,10.17,1.55,14.36c-5.41,15.78,3,18.91,15.73,19.01
			c-1.41,6.16-4.65,12.56-3.84,18.41C1214.61,958.25,1210.41,964.8,1196.17,963.54z"/>
		<path style="fill:#F93619;" d="M1508.86,888.58c-3.33-0.11-6.65-0.22-9.98-0.33c7.93-19.04,15.86-38.09,23.79-57.13
			c2.19,0.04,4.37,0.08,6.56,0.12c-0.07,14.24-0.14,28.48-0.2,42.72c-3.43,3.44-6.86,6.87-10.29,10.31
			C1515.44,885.7,1512.15,887.14,1508.86,888.58z"/>
		<path style="fill:#2D726A;" d="M1077.34,827.99c14.59,2.44,29.18,4.89,43.77,7.33C1106.52,832.87,1091.93,830.43,1077.34,827.99z"
			/>
		<path style="fill:#FA5722;" d="M586.21,1047.36c0.67,11.31,1.34,22.61,2.01,33.92C587.55,1069.97,586.88,1058.67,586.21,1047.36z"
			/>
		<path style="fill:#912D53;" d="M409.13,1101.01c10.87,2.11,9.08,7.42,3.47,13.72C411.44,1110.16,410.29,1105.59,409.13,1101.01z"
			/>
		<path style="fill:#2D726A;" d="M1026.34,999.53c0.06-6.7,0.12-13.4,0.18-20.1C1026.46,986.13,1026.4,992.83,1026.34,999.53z"/>
		<path style="fill:#912D53;" d="M412.49,1114.7c1.19,2.31,2.38,4.62,3.58,6.92C414.87,1119.32,413.68,1117.01,412.49,1114.7z"/>
		<path style="fill:#FA5722;" d="M539.36,1101.2c0.68,3.11,1.36,6.22,2.04,9.32C540.72,1107.42,540.04,1104.31,539.36,1101.2z"/>
		<path style="fill:#2D726A;" d="M1072.25,823.83c1.65,1.39,3.31,2.78,4.96,4.17C1075.55,826.61,1073.9,825.22,1072.25,823.83z"/>
		<path style="fill:#912D53;" d="M1319.95,892.01c2.38,1.39,4.75,2.79,7.13,4.18C1324.71,894.8,1322.33,893.41,1319.95,892.01z"/>
		<path style="fill:#FDA834;" d="M511.73,760.3c0.32,0.78,0.74,1.54,0.9,2.35c0.04,0.22-0.69,0.59-1.07,0.89
			C511.1,762.43,511.16,761.35,511.73,760.3z"/>
		<path style="fill:#4B982E;" d="M841.23,753.5c-0.5-0.71-1.08-1.38-1.44-2.15c-0.09-0.19,0.55-0.71,0.86-1.08
			C840.84,751.35,841.04,752.43,841.23,753.5z"/>
		<path style="fill:#79B82A;" d="M685.55,774.03c-0.37-4.27-0.73-8.55-1.09-12.82c2.95-7.09,5.89-14.18,8.83-21.27
			c0.42-0.28,1.23-0.62,1.2-0.81c-0.16-0.83-0.56-1.61-0.87-2.41c0.16-4.53,0.32-9.06,0.48-13.59c2.98-1.8,7.15-2.88,8.74-5.52
			c12.24-20.25,23.57-41.06,35.98-61.19c18.14-29.41,36.95-58.4,55.47-87.57c1.45-2.06,2.89-4.12,4.34-6.18
			c13.39-20.27,26.78-40.54,40.18-60.8c13.28,8.74,26.56,17.47,39.85,26.21c-2.19,3.75-3.67,8.28-6.72,11.1
			c-5.94,5.47-12.76,9.98-19.22,14.89c1.68,0.96,3.27,2.38,5.08,2.77c2.39,0.51,4.95,0.21,7.43,0.26c-0.92,2.24-1.3,5.89-2.85,6.49
			c-10.2,3.94-14.39,7.58-13.36,21.57c0.77,10.39-13.3,21.94-20.9,32.87c-14.97,21.53-30.93,42.42-44.79,64.64
			c-12.23,19.61-22.15,40.65-33.08,61.07c-30.5-13.02-51.97,10.59-45.49,38.69c4.06,17.6-10.72,24.31-14.97,36.73
			c-4.47-2.24-12.89-4.82-12.73-6.67c0.82-9.63,3.83-19.07,6.08-28.57c0,0-0.05,0.03-0.05,0.03
			C683.91,780.63,684.73,777.33,685.55,774.03z"/>
		<path style="fill:#97C729;" d="M794.31,568.85c-18.52,29.17-37.34,58.16-55.47,87.57c-12.42,20.14-23.74,40.95-35.98,61.19
			c-1.6,2.64-5.77,3.72-8.74,5.52c-8.31-31.42-16.61-62.84-24.92-94.26c6.71-10.54,13.47-21.04,20.1-31.62
			c10.09-16.09,19.67-32.53,30.27-48.27c10.7-15.88,22.21-31.23,33.72-46.55c6.6-8.79,13.92-17.04,20.91-25.53
			c11.14,8.22,19.87,16.21,11.93,32.65c-5.06,10.46-5.57,23.12-8.12,34.79c-0.46,2.11-0.26,4.69-1.43,6.26
			c-10.24,13.71-9.99,14.12,12.75,17.77C790.96,568.64,792.64,568.69,794.31,568.85z"/>
		<path style="fill:#B8DA24;" d="M774.19,476.9c-6.99,8.49-14.31,16.75-20.91,25.53c-11.51,15.31-23.02,30.66-33.72,46.55
			c-10.61,15.74-20.18,32.18-30.27,48.27c-6.64,10.58-13.4,21.08-20.1,31.62c-11.43-26.27-8.69-36.57,15.91-48.74
			c12.9-6.38,12.04-12.53,5.86-23.47c-8.64-15.29-20.04-31.02-11.99-50.06c3.16-7.46,8.7-15.01,15.19-19.7
			c9.13-6.61,20.76-9.69,30.24-15.93C743.11,458.67,758.25,469.68,774.19,476.9z"/>
		<path style="fill:#FDA834;" d="M436.34,827.58c-2.03-3.1-3.4-7.27-6.26-9.06c-4.71-2.94-14.88-6.38-15-6.1
			c-6.54,14.45-20.14,11.17-31.59,13.66c-8.31,1.81-16.18,5.66-24.24,8.6c-3.59-0.1-7.18-0.21-10.77-0.31
			c2.25-3.11,4.5-6.21,6.74-9.31c0,0-0.3,0.16-0.3,0.16c0.12-0.62,0.41-1.15,0.89-1.56c5.55-11.07,11.11-22.15,16.66-33.22
			c5.27,0.3,11.13,2.23,15.72,0.6c14.23-5.08,27.98-11.51,41.92-17.41c3.46,8.14,9,16.06,9.85,24.46
			C440.92,807.69,437.72,817.73,436.34,827.58z"/>
		<path style="fill:#97C729;" d="M838.82,501.86c-13.39,20.27-26.78,40.53-40.18,60.8c0,0.01-0.02-0.33,0.01-0.32
			c0.46-0.69,0.9-1.38,1.34-2.07c-0.76,0.15-1.53,0.3-2.29,0.44c-8.23-26.54-3.64-47.23,15.03-56.66
			C819.95,500.41,830.04,502.43,838.82,501.86z"/>
		<path style="fill:#FCB93A;" d="M430.1,773.62c-13.94,5.91-27.68,12.34-41.92,17.41c-4.58,1.64-10.44-0.3-15.72-0.6
			c2.78-8.88,5.55-17.77,8.33-26.66c4.46-3.4,8.92-6.8,13.38-10.2C406.73,759.23,424.82,754.94,430.1,773.62z"/>
		<path style="fill:#97C729;" d="M693.63,736.72c0.31,0.8,0.72,1.58,0.87,2.41c0.04,0.19-0.78,0.54-1.2,0.81
			C693.41,738.87,693.52,737.79,693.63,736.72z"/>
		<path style="fill:#79B82A;" d="M797.7,560.72c0.76-0.15,1.53-0.3,2.29-0.44c-0.44,0.69-0.87,1.38-1.34,2.07
			c-0.03,0-0.98-0.53-0.98-0.53L797.7,560.72z"/>
		<path style="fill:#FA6824;" d="M1529.03,873.96c0.07-14.24,0.14-28.48,0.2-42.72c8.55,8.3,11.74,10.25,13.31-5.31
			c0.8-7.9,13.24-14.62,20.41-21.87c0.11,9.61,3.02,20.35-0.3,28.57c-5.09,12.61-14.09,23.76-22.25,34.93
			C1538.07,870.77,1532.9,871.89,1529.03,873.96z"/>
		<path style="fill:#FCFBFB;" d="M1036.16,708.17c9.21,21.36,21.91,42.31,8.04,66.44c-1.72,2.99-3.8,5.78-5.71,8.67
			c-0.88-3.2-2.01-6.35-2.61-9.6c-2.9-15.73-5.65-31.49-8.46-47.23c-2.1-11.33-4.2-22.67-6.3-34c-0.37-2.02-0.74-4.04-1.11-6.06
			c2.47,0.69,6.29,0.62,7.17,2.19C1030.67,694.83,1033.24,701.59,1036.16,708.17z"/>
		<path style="fill:#4B982E;" d="M1020.21,601.74c-0.24,0.45-0.48,0.9-0.73,1.35c0.25-0.44,0.51-0.88,0.76-1.32
			C1020.24,601.77,1020.21,601.74,1020.21,601.74z"/>
		<path style="fill:#4B982E;" d="M1020.24,601.77c0.24-0.45,0.49-0.9,0.73-1.36c-0.25,0.44-0.51,0.88-0.76,1.33
			C1020.21,601.74,1020.24,601.77,1020.24,601.77z"/>
		<path style="fill:#FCFBFB;" d="M344.57,741.51c-1.53,9.39-3.06,18.77-4.59,28.16c-2.33-9.91-5.61-19.72-6.66-29.76
			c-0.7-6.63,1.61-13.64,3.09-20.36c0.19-0.84,3.56-0.98,5.45-1.45c0.48,6.23,0.95,12.45,1.43,18.68c0.55,1.37,1.09,2.73,1.64,4.1
			L344.57,741.51z"/>
		<path style="fill:#378284;" d="M344.92,740.88c-0.55-1.37-1.09-2.73-1.64-4.1C343.83,738.14,344.38,739.51,344.92,740.88z"/>
		<path style="fill:#F93619;" d="M1495.69,888.17c-3.24,3.48-6.49,6.96-9.73,10.44c1.21-5.4,2.41-10.8,3.61-16.2
			C1491.61,884.33,1493.65,886.25,1495.69,888.17z"/>
		<path style="fill:#FCFBFB;" d="M380.8,763.78c-2.78,8.89-5.55,17.77-8.33,26.66c-5.55,11.08-11.11,22.15-16.66,33.22
			c3.28-20.19,6.22-40.44,10.03-60.52c1.16-6.13,4.7-11.8,7.16-17.69C375.6,751.56,378.2,757.67,380.8,763.78z"/>
		<path style="fill:#FDA834;" d="M346.04,834.9c-0.56,1.38-1.13,2.76-1.69,4.13c-0.67-1.28-1.33-2.57-2-3.85
			C343.57,835.09,344.81,834.99,346.04,834.9z"/>
		<path style="fill:#FCFBFB;" d="M354.93,825.22c0,0,0.29-0.15,0.3-0.16C355.23,825.06,354.93,825.22,354.93,825.22z"/>
		<path style="fill:#FDA834;" d="M581.78,644.71c-0.37-0.31-0.73-0.61-1.1-0.92c0.43-0.23,0.87-0.67,1.27-0.64
			c0.39,0.03,0.74,0.55,1.11,0.86C582.63,644.25,582.21,644.48,581.78,644.71z"/>
		<path style="fill:#60AC2B;" d="M959.54,517.45c0.45,0.25,0.89,0.5,1.34,0.75c-0.45-0.25-0.9-0.49-1.35-0.74
			C959.53,517.46,959.54,517.45,959.54,517.45z"/>
		<path style="fill:#FA6824;" d="M685.55,774.03c-0.82,3.3-1.64,6.6-2.46,9.9C683.91,780.63,684.73,777.33,685.55,774.03z"/>
		<path style="fill:#F93619;" d="M728.2,1032.46c0.39,0.14,1.11,0.27,1.12,0.42c0.01,0.44-0.17,0.97-0.46,1.31
			c-0.1,0.12-0.74-0.24-1.14-0.38C727.88,1033.36,728.04,1032.91,728.2,1032.46z"/>
		<path style="fill:#BA6465;" d="M359.33,1026.6c-0.26,0.47-0.52,0.95-0.78,1.42c0.26-0.47,0.53-0.94,0.79-1.4
			C359.34,1026.62,359.33,1026.6,359.33,1026.6z"/>
	</g>
</g>
</svg>
