<?xml version="1.0" encoding="utf-8"?>
<!-- Generator: Adobe Illustrator 23.0.1, SVG Export Plug-In . SVG Version: 6.00 Build 0)  -->
<svg version="1.1" id="Layer_1" xmlns="http://www.w3.org/2000/svg" xmlns:xlink="http://www.w3.org/1999/xlink" x="0px" y="0px"
	 viewBox="0 0 500 260" style="enable-background:new 0 0 500 260;" xml:space="preserve">
<g>
	<g>
		<path style="fill:#331521;" d="M331.96,95.51c3.76,1.34,7.71,2.22,11.25,4.09c10.43,5.52,15.83,15.47,18.05,27.96
			c0.06,3.04,0.12,6.09,0.18,9.13c-0.07,3.19-0.14,6.37-0.21,9.55c-1.19,0.58-2.38,1.16-3.57,1.75c-0.6-13.76-7.46-21.92-18.7-24.88
			c-6.37-1.67-13.16-1.25-19.74-1.88c-9.4-0.91-17.49,5.65-19.94,16.1c-0.83,3.53-2.01,6.95-3.02,10.41
			c-1.12-1.94-2.24-3.88-3.35-5.83c0.45-5.15,0.9-10.3,1.35-15.46c2.7-10.92,6.08-21.19,16.58-25.79c1.19-0.52,1.59-3.38,2.36-5.16
			C319.44,95.51,325.7,95.51,331.96,95.51z"/>
		<path style="fill:#664F55;" d="M5.83,178.88c3.35-2.68,6.71-5.37,10.06-8.05c0.94,2,1.89,4.01,2.83,6.01
			c0.34,2.19,0.57,4.41,1.04,6.57c0.92,4.22,3.43,8.93,2.46,12.42c-0.62,2.21-6.35,2.57-10.41,1.82c1.26-1.23,2.52-2.45,3.84-3.74
			c-3.5-3.28-6.66-6.25-9.82-9.21C5.83,182.76,5.83,180.82,5.83,178.88z"/>
		<path style="fill:#FAC997;" d="M489.54,173c-0.71,0.8-1.42,1.59-2.12,2.39c-0.59,1.16-1.18,2.32-1.77,3.48
			c0,0-0.03,0.04-0.03,0.04c-0.94,0.68-1.88,1.36-2.82,2.05c-3.17,3.26-6.34,6.52-9.5,9.79c0,0-0.66,0.07-0.66,0.07
			c-1.45,0.46-2.9,0.93-4.35,1.39c-9.73,0.74-20.2,5.85-27.85-5.97c-0.13-0.21-0.52-0.2-0.79-0.29c-1.85-1.39-3.69-2.78-5.54-4.17
			c-0.94-1.62-1.88-3.24-2.82-4.87c-1.83-4.46-3.66-8.92-5.49-13.37c0.02-0.63,0.02-1.26,0.02-1.89c1.65-2.14,3.57-4.09,4.9-6.47
			c4.4-7.81,5.97-18.15,12.1-20.63c8.98,3.76,15.26,7.8,21.91,8.89c14,2.29,21.96,10.65,24.51,26.17
			C489.35,170.73,489.45,171.87,489.54,173z M448.85,175.54c-0.48,0.83-0.97,1.66-1.45,2.49c2.14,2.19,4.05,5.68,6.48,6.22
			c2.87,0.64,6.19-1.26,9.31-2.06c-0.1-1.06-0.2-2.12-0.3-3.18C458.21,177.85,453.53,176.69,448.85,175.54z"/>
		<path style="fill:#F9C998;" d="M18.72,176.84c-0.94-2-1.89-4.01-2.83-6.01c-1.02-2.48-2.04-4.96-3.06-7.45
			c0.96-1.83,2.17-3.54,2.83-5.5c3.67-10.83,10.06-17.01,20.64-18.27c6.73-0.8,13.28-3.64,19.91-5.57c-0.84,0.53-1.68,1.07-2.52,1.6
			c3.75,2.88,8.16,5.09,11.08,8.81c3.33,4.26,5.32,9.86,7.89,14.88c-0.1,1.34-0.2,2.68-0.3,4.02c-0.14,0.53-0.16,1.08-0.07,1.62
			c-0.48,0.75-0.95,1.49-1.43,2.24c-0.22,0.52-0.31,1.07-0.28,1.64c-0.53,0.75-1.06,1.5-1.59,2.25c-0.16,0.51-0.21,1.03-0.15,1.56
			c-0.54,0.75-1.07,1.51-1.61,2.26l0.01-0.02c-0.57,0.66-1.13,1.31-1.7,1.97l0-0.01c-0.57,0.65-1.14,1.3-1.72,1.94l-0.01-0.01
			c-0.46,0.6-0.93,1.19-1.39,1.79c-2.1,2.67-4.62,5.05-6.19,8.07c-2.81,5.39-5.41,7.31-10.74,3.18c-3.43-2.66-8.11-3.24-12.23-4.75
			C28.43,183.7,23.57,180.27,18.72,176.84z"/>
		<path style="fill:#FAC997;" d="M153.23,145.87c0.46-1.19,0.91-2.38,1.37-3.58c19.1,1.54,32.29-10.48,44.44-26.77
			c4.15,9.63,5.83,20.28,16.46,21.07c1,3.73,3.64,8.15,2.7,11.08c-2.82,8.72-7.04,16.85-10.71,25.21c-1.25,0.76-2.51,1.52-3.76,2.27
			c-8.97-2.8-17.89,7.94-27.01,0.23c-0.22-0.18-2.21,2.35-3.38,3.62c-2.58-7.33-4.88-14.98-13.51-15.52
			c-2.88-2.74-5.76-5.48-8.65-8.22C151.86,152.13,152.54,149,153.23,145.87z M196.06,162.85c-0.38-0.93-0.76-1.87-1.13-2.8
			c-5.28-0.46-10.57-0.93-15.85-1.39c-0.42,0.98-0.84,1.97-1.26,2.95c3.44,2.42,6.7,6.07,10.4,6.82
			C190.47,168.88,193.42,164.86,196.06,162.85z"/>
		<path style="fill:#F9C998;" d="M425.83,161.63c0,0.63,0,1.26-0.02,1.89c-3.36,3.12-6.72,6.24-10.08,9.36
			c-1.18,0.7-2.35,1.41-3.53,2.11c-1.07,0.69-2.13,1.38-3.2,2.07c0,0-0.18,0.14-0.18,0.14c-0.68,0.51-1.35,1.02-2.03,1.52
			c-0.58,0.49-1.15,0.98-1.73,1.48c-0.45,0.2-0.91,0.34-1.39,0.41l-0.72-0.1c0,0-0.72,0.08-0.72,0.08
			c-0.51,0.08-1.01,0.16-1.52,0.23c0,0-0.54,0.06-0.54,0.06c-1.64,0.62-3.27,1.23-4.91,1.85c-5-1.79-10.36-2.82-14.94-5.53
			c-10.92-6.46-15.73-18.25-19.12-30.96c0.07-3.19,0.14-6.37,0.21-9.56c4.41,0.58,8.82,1.15,13.23,1.75
			c14.08,1.91,25.62-5.7,37.45-13.8c2.77,10.82,1.55,23.55,13.78,26.99C425.88,154.96,425.85,158.3,425.83,161.63z M393.26,169.45
			c-0.17-0.98-0.34-1.96-0.52-2.94c-4.73-1.79-9.47-3.58-14.2-5.37c-0.5,0.72-1,1.44-1.5,2.16c2.5,2.81,4.61,6.72,7.62,8.09
			C386.93,172.42,390.35,170.22,393.26,169.45z"/>
		<path style="fill:#CEAB0A;" d="M425.83,161.63c0.03-3.33,0.05-6.67,0.08-10c0.67-6.23,1.34-12.46,2.01-18.68
			c6.66-5.77,12.65-13.43,20.14-16.89c12.88-5.95,26.4-5.31,37.7,5.63c9.06,8.78,11.05,21.03,10.18,33.86
			c-0.22,3.31-2.08,6.47-3.19,9.7c-0.66,1.53-1.32,3.05-1.98,4.58c-0.47-0.35-0.98-0.43-1.52-0.22
			c-2.54-15.52-10.51-23.88-24.51-26.17c-6.65-1.09-12.93-5.13-21.91-8.89c-6.14,2.48-7.71,12.82-12.1,20.63
			C429.4,157.54,427.48,159.49,425.83,161.63z"/>
		<path style="fill:#B14F54;" d="M439.65,185.93c0.27,0.09,0.65,0.09,0.78,0.29c7.65,11.82,18.12,6.71,27.85,5.98
			c0.85,9.25,1.71,18.5,2.56,27.75c-0.58,5.13,9.2,9.23,1.17,15.11c-2.36-7.51-6.16-2.51-9.49-1.4c-9.33,3.11-18.66,6.26-27.98,9.39
			c-0.78-5.84-2.01-11.67-2.18-17.54c-0.11-3.93,1.28-7.92,1.99-11.89c0.23-3.27,0.1-6.64,0.77-9.79
			C436.4,197.8,438.12,191.89,439.65,185.93z"/>
		<path style="fill:#93D54E;" d="M302.99,225.48c0.92-5.52,1.97-11.01,2.7-16.56c0.44-3.39,0.39-6.87,0.55-10.31
			c2.8-7.93,5.61-15.87,8.41-23.8c1.19,0.66,2.39,1.31,3.58,1.97c-0.18,5.75,0.53,11.32,6.77,11.8c6.79,0.52,9.84-4.45,10.68-11.56
			c0.99-0.57,1.98-1.14,2.97-1.71c1.86,8.04,3.73,16.09,5.59,24.14c1.62,8.73,3.25,17.46,4.87,26.19c-0.07,0.62-0.15,1.24-0.24,1.86
			c-2.66,0.61-5.33,1.22-7.99,1.83c-12.24-1.2-24.48-2.39-36.72-3.59l-0.68,0.01l-0.6-0.38L302.99,225.48z"/>
		<path style="fill:#FA5AB8;" d="M238.32,221.18c-3.57-3.39-7.15-6.78-12.79-12.14c5.64-5.19,9.85-9.05,14.06-12.92
			c2.35-7.51,4.71-15.02,7.06-22.54c4.55,1.41,9.07,3.71,13.67,3.93c3.29,0.16,6.68-2.46,10.03-3.85c0.64,4.7,1.55,9.37,1.85,14.1
			c0.31,4.88,0.04,9.81,0.03,14.72c1.02,5.58,2.04,11.16,3.06,16.75C263.24,226.67,250.77,223.65,238.32,221.18z"/>
		<path style="fill:#059EC4;" d="M147.02,207.25c0.54,5,1.08,10,1.61,15c-5.24,7.44-12.11,10.6-20.34,9.25
			c-6.42-1.05-12.77-2.74-19.15-4.14c-8.37-3.03-6.11-9.07-3.35-15.23c2.03-10.61,7.47-21.12,0.78-32.03
			c2.32,0.72,5.25,0.66,6.86,2.29c8.56,8.63,10.84,8.12,14.35-4.09C130.72,190.92,133.09,204.03,147.02,207.25z"/>
		<path style="fill:#BA64A2;" d="M33.28,187.12c4.12,1.51,8.8,2.09,12.23,4.75c5.33,4.13,7.93,2.21,10.74-3.18
			c1.57-3.02,4.1-5.4,6.19-8.07c0,0,0.74,0.15,0.74,0.15l0.75-0.08c0,0,0.11,0.06,0.11,0.06c1.64,0.58,3.29,1.16,4.93,1.73
			c0.99,0.15,1.98,0.29,2.96,0.44c0.26,1.91,0.52,3.82,0.77,5.73c-3.19,6.07-8.95,11.79-2.03,19.24c0.71,1.99,1.42,3.97,2.13,5.96
			c0.9,3.79,1.81,7.57,2.71,11.36c-2.18,0.48-4.37,0.94-6.56,1.44c-9.56,2.19-19.11,4.4-28.66,6.6c-1.13-2.26-3.32-4.63-3.15-6.76
			c0.35-4.34,1.97-8.55,3.07-12.81c0.26-4.69,0.53-9.37,0.8-14.06c-2.68,0.89-5.36,1.78-8.04,2.67
			C24.74,194.99,24.74,194.99,33.28,187.12z"/>
		<path style="fill:#F6B02D;" d="M173.33,179c1.17-1.27,3.16-3.8,3.38-3.62c9.11,7.7,18.04-3.03,27.01-0.23
			c0.04,1.55,0.68,3.93,0.04,4.53c-8.41,7.78-3.26,14.87,0.62,22.07c-5.3,4.68-10.61,9.36-16.91,14.93
			c-3.78-10.75-6.89-19.63-10.01-28.5c-0.66,0.37-1.31,0.75-1.97,1.12c2.74,17.09,8.57,32.42,20.47,44.3
			c-10.75,3.62-20.7-0.45-30.43-4.76c-1.07-0.48-1.2-5.82-0.62-8.6c2.33-11.24,5.11-22.36,7.72-33.53
			C172.87,184.13,173.1,181.57,173.33,179z"/>
		<path style="fill:#498195;" d="M348.88,227.48c0.09-0.62,0.18-1.24,0.24-1.86c0.96-1.5,2.42-2.86,2.8-4.53
			c2.34-10.12,7.57-13.16,16.1-9.21c1.81,0.84,3.89,1.94,5.66,1.61c2.73-0.51,6.48-1.28,7.73-3.46c5.05-8.78,9.31-18.14,13.86-27.29
			c1.64-0.62,3.27-1.23,4.91-1.85c-0.57,2.58-1.15,5.16-1.72,7.74c-0.66,1.76-1.33,3.51-1.99,5.27
			c-5.15,11.97-10.3,23.93-15.45,35.89c-0.9,2.41-1.8,4.84-2.7,7.26c-0.25,0.58-0.47,1.16-0.68,1.76c-4.09,6.16-9.55,8.86-16.3,8.25
			C350.7,244.5,349.38,242.42,348.88,227.48z"/>
		<path style="fill:#674495;" d="M195.97,233.6c-11.9-11.88-17.74-27.21-20.47-44.3c0.66-0.37,1.31-0.75,1.97-1.12
			c3.12,8.87,6.23,17.75,10.01,28.5c6.3-5.56,11.61-10.25,16.91-14.93c8.42,0.85,17.96,12.26,18.11,21.66
			c0.15,9.96-8.59,16.12-19.51,13.49C200.55,236.31,198.3,234.72,195.97,233.6z"/>
		<path style="fill:#21576E;" d="M434.55,243.05c9.33-3.13,18.65-6.28,27.98-9.39c3.33-1.11,7.13-6.11,9.49,1.4
			c0.1,2.63,0.2,5.26,0.29,7.88c0.01,4.46,0.02,8.92,0.03,13.39c0.01,6.86-0.51,13.23-8.91,12.11c-1.24-2.71-2.48-5.42-3.71-8.13
			c0-4.96,0-9.92,0-16.86c-4.29,2.52-7.11,4.17-9.93,5.83c-0.08,7.81-0.16,15.63-0.23,23.44c-2.22,1.14-4.44,2.28-6.66,3.42
			c-1.1,0.01-2.21,0.02-3.32,0.04c-1.35-2.24-3.66-4.38-3.87-6.75C434.95,260.68,434.88,251.85,434.55,243.05z"/>
		<path style="fill:#D78D0A;" d="M304.17,225.72c12.24,1.2,24.48,2.39,36.72,3.59c-0.05,7.49,0.48,15.09-0.46,22.44
			c-0.37,2.86-4.06,5.17-7.61,9.35c-0.43-8.36-1.09-13.47-0.87-18.54c0.33-7.55-3.88-7.19-8.38-7.26c-5.05-0.08-8.39,1.97-8.48,8.12
			c-0.15,9.33-0.04,18.67-0.04,27.98c-3.09,0.72-5.52,1.29-9.86,2.3C304.85,257.58,304.51,241.65,304.17,225.72z"/>
		<path style="fill:#885A44;" d="M109.15,227.35c6.38,1.4,12.72,3.09,19.15,4.14c8.22,1.35,15.09-1.81,20.34-9.25
			c0.23,6.74,1.14,13.58,0.37,20.18c-0.34,2.98-3.87,7.47-6.22,7.7c-3.64,0.36-9.68,2.56-10.4-5.82c-0.19-2.2-1.74-4.26-2.66-6.38
			c-0.67,0.22-1.33,0.44-2,0.67c-0.2,2.04-0.8,4.14-0.55,6.1c1.17,9.18-3.09,12.02-10.26,12.22c-6.44,0.18-9.43-2.61-8.66-10.32
			C108.88,240.22,108.87,233.77,109.15,227.35z"/>
		<path style="fill:#FCC0E1;" d="M238.32,221.18c12.45,2.47,24.92,5.49,36.96-1.94c-0.55,5.99-1.26,11.97-1.57,17.98
			c-0.17,3.25,0.13,6.59,0.59,9.82c0.56,3.89,1.51,7.71,2.3,11.56c-1.28,0.59-2.56,1.18-3.83,1.77c-3.17-6.68-5.89-13.73-9.71-19.88
			c-1.67-2.69-5.54-4.5-8.55-4.78c-1.11-0.1-3.19,5.18-3.82,8.27c-0.89,4.31-0.83,8.86-2.24,13.35
			C239.15,247.06,240.13,233.63,238.32,221.18z"/>
		<path style="fill:#D0AD1D;" d="M207.48,172.87c3.67-8.36,7.9-16.49,10.71-25.21c0.94-2.92-1.7-7.34-2.7-11.08
			c0.74-1.53,1.49-3.06,2.23-4.58c1.73,0.3,3.46,0.6,5.19,0.9c1.34,4.31,2.68,8.61,4.01,12.92c1.71,5.01,3.61,9.96,4.97,15.09
			c0.29,1.08-1.44,2.85-2.23,4.3c-1.99,1.43-4.28,2.52-5.9,4.37c-1.76,2.02-2.88,4.74-4.28,7.16c2.23,1.35,4.46,2.7,6.68,4.05
			c-0.21,3.28-1.09,6.73-0.51,9.81c1.32,6.95-1.68,9.05-7.78,9.96c1.46-6,3.01-10.95-4.59-13.24
			C210.43,186.46,209.36,177.91,207.48,172.87z"/>
		<path style="fill:#5A5856;" d="M40.3,233.25c9.55-2.2,19.11-4.41,28.66-6.6c2.18-0.5,4.37-0.96,6.56-1.44
			c1.44,2.98,2.88,5.97,5.18,10.74c-11.09,3.1-20.91,6.69-30.96,8.33C44.05,245.22,38.15,242.74,40.3,233.25z"/>
		<path style="fill:#15A2C5;" d="M149.09,196.77c-0.66,1.08-1.33,2.17-1.99,3.25c-9.32-4.44-13.61-13.62-12.87-27.54
			c3.34-2.48,6.68-4.96,10.03-7.44c2.2,2.62,4.41,5.24,6.61,7.86c0.67,3.35,1.35,6.7,2.02,10.05
			C151.36,187.47,141.85,189.15,149.09,196.77z"/>
		<path style="fill:#15A2C5;" d="M103.69,199.13c-4.24,3.22-6.69,13.32-14.02,4.72c-1.19-2.53-2.39-5.06-3.58-7.59
			c4.9-4.53,9.8-9.05,14.7-13.58C101.76,188.16,102.72,193.64,103.69,199.13z"/>
		<path style="fill:#FA5AB8;" d="M226.17,180.79c-2.23-1.35-4.46-2.7-6.68-4.05c1.4-2.42,2.52-5.14,4.28-7.16
			c1.61-1.85,3.9-2.94,5.89-4.37c4.48,2.62,8.96,5.24,13.45,7.86c-1.47,3.55-2.94,7.11-4.42,10.66
			C234.52,182.75,230.35,181.77,226.17,180.79z"/>
		<path style="fill:#90CBDB;" d="M378.32,237.05c0.9-2.42,1.8-4.85,2.7-7.26c4.61,0.01,9.22,0.01,13.83,0.01
			c0.65,16.64-1.36,22.96-9.71,28.14c0-4.2-0.96-8.31,0.18-11.44C388.62,237.42,384.53,236.47,378.32,237.05z"/>
		<path style="fill:#674495;" d="M134.24,172.48c-0.75,13.93,3.54,23.11,12.86,27.54c-0.03,2.41-0.06,4.82-0.08,7.23
			c-13.93-3.22-16.3-16.33-19.23-28.95C129.94,176.37,132.09,174.43,134.24,172.48z"/>
		<path style="fill:#93D54E;" d="M305.03,182.65c-3.55-0.57-7.1-1.14-10.66-1.71c-1.68-2.56-3.37-5.12-5.05-7.67
			c5.17-1.44,10.33-2.88,15.5-4.33c1.78,1.29,3.57,2.58,5.35,3.88C308.46,176.09,306.75,179.37,305.03,182.65z"/>
		<path style="fill:#B14F54;" d="M431.3,176.89c0.94,1.62,1.88,3.24,2.82,4.86c-1.73,4.87-3.46,9.74-5.2,14.62
			c-5.06-2.05-13.21-1.43-8.16-12.2c0.43-0.47,0.85-0.93,1.28-1.4c0.63-0.69,1.26-1.39,1.89-2.08
			C426.38,179.42,428.84,178.16,431.3,176.89z"/>
		<path style="fill:#B14F54;" d="M472.64,190.8c0,0,0.66-0.07,0.66-0.07c3.56,3.81,7.12,7.62,10.67,11.43
			c0.49,2.08,0.99,4.15,1.48,6.23c-0.15,0.52-0.11,1.01,0.12,1.49c-0.45,0.24-0.59,0.63-0.43,1.16c-4.29-1.03-8.59-2.06-12.88-3.08
			C472.38,202.24,472.51,196.52,472.64,190.8z"/>
		<path style="fill:#21576E;" d="M272.23,202.49c0.02-4.91,0.29-9.84-0.03-14.72c-0.3-4.72-1.21-9.4-1.85-14.1
			c1.55-0.31,3.1-0.62,4.65-0.93c1.96,2.84,3.93,5.68,5.89,8.51C278.01,188.33,275.12,195.41,272.23,202.49z"/>
		<path style="fill:#B14F54;" d="M280.9,181.26c-1.96-2.84-3.93-5.68-5.9-8.51c2.03-0.67,4.06-1.34,6.09-2.01
			c2.74,0.84,5.48,1.69,8.22,2.53c1.68,2.56,3.37,5.12,5.05,7.67C290.12,194.19,285.43,183.21,280.9,181.26z"/>
		<path style="fill:#F9F4E7;" d="M173.33,179c-0.23,2.57-0.46,5.13-0.69,7.7c-2.09-0.02-4.19-0.03-6.28-0.05
			c-0.04-1.06-0.09-2.11-0.13-3.18c1.1-0.88,2.2-1.75,3.57-2.84c-2.72-2.31-4.61-3.91-6.51-5.52c-1.16-3.88-2.32-7.75-3.48-11.63
			C168.45,164.02,170.75,171.67,173.33,179z"/>
		<path style="fill:#D0AD1D;" d="M166.24,183.48c0.04,1.06,0.09,2.11,0.13,3.17c-5.76,3.37-11.51,6.75-17.27,10.12
			c-7.25-7.63,2.27-9.3,3.8-13.81C157.34,183.14,161.79,183.31,166.24,183.48z"/>
		<path style="fill:#90CBDB;" d="M86.09,196.26c1.19,2.53,2.39,5.06,3.58,7.59c-5.62,3.33-11.25,6.67-16.87,10
			c-0.71-1.99-1.42-3.97-2.13-5.96C75.81,204.02,80.95,200.14,86.09,196.26z"/>
		<path style="fill:#674495;" d="M103.69,199.13c-0.97-5.48-1.93-10.96-2.9-16.45c0.3-1.23,0.61-2.46,0.91-3.7
			c1.63,0.37,3.25,0.74,4.88,1.11c6.69,10.9,1.25,21.42-0.78,32.03C105.1,207.77,104.4,203.45,103.69,199.13z"/>
		<path style="fill:#6F4A27;" d="M431.3,176.89c-2.46,1.27-4.91,2.53-7.37,3.8c-2.73-2.6-5.46-5.21-8.19-7.81
			c3.36-3.12,6.72-6.24,10.07-9.36C427.64,167.98,429.47,172.43,431.3,176.89z"/>
		<path style="fill:#58C1A7;" d="M428.92,196.37c1.73-4.88,3.47-9.75,5.2-14.62c1.84,1.4,3.69,2.79,5.54,4.18
			c-1.53,5.96-3.25,11.87-4.52,17.9c-0.66,3.15-0.54,6.52-0.77,9.79C432.55,207.87,430.73,202.12,428.92,196.37z"/>
		<path style="fill:#5A5856;" d="M305.03,182.65c1.71-3.28,3.43-6.55,5.14-9.83c1.49,0.66,2.99,1.32,4.49,1.99
			c-2.8,7.93-5.61,15.87-8.41,23.8C305.84,193.29,305.44,187.97,305.03,182.65z"/>
		<path style="fill:#21576E;" d="M238.69,183.73c1.47-3.55,2.94-7.11,4.42-10.66c1.18,0.17,2.36,0.34,3.54,0.52
			c-2.35,7.51-4.7,15.02-7.06,22.53C239.29,191.99,238.99,187.86,238.69,183.73z"/>
		<path style="fill:#90CBDB;" d="M361.34,247.06c6.75,0.61,12.21-2.08,16.3-8.25c-2.6,5.45,1.74,14.89-5.88,16.45
			C367.61,251.99,364.48,249.52,361.34,247.06z"/>
		<path style="fill:#F9C998;" d="M32.97,202.28c2.68-0.89,5.36-1.78,8.04-2.67c-0.27,4.69-0.53,9.38-0.8,14.06
			C37.8,209.88,35.39,206.08,32.97,202.28z"/>
		<path style="fill:#58C1A7;" d="M472.64,190.8c-0.13,5.72-0.26,11.44-0.39,17.16c-0.47,4.01-0.93,8.02-1.4,12.01
			c-0.86-9.27-1.71-18.52-2.56-27.77C469.74,191.73,471.19,191.27,472.64,190.8z"/>
		<path style="fill:#F9F4E7;" d="M409.01,177.06c1.07-0.69,2.13-1.38,3.2-2.07C411.14,175.68,410.08,176.37,409.01,177.06z"/>
		<path style="fill:#F9F4E7;" d="M403.69,180.61c0.48-0.07,0.94-0.21,1.39-0.41c-0.14,0.49-0.29,0.99-0.43,1.48
			C404.33,181.32,404.01,180.97,403.69,180.61z"/>
		<path style="fill:#F9F4E7;" d="M400.73,180.83c0.51-0.08,1.01-0.15,1.52-0.23C401.75,180.73,401.25,180.81,400.73,180.83z"/>
		<path style="fill:#93D54E;" d="M302.89,225.35c-0.1,0.24-0.2,0.48-0.29,0.72c0.13-0.2,0.26-0.4,0.4-0.59
			C302.99,225.48,302.89,225.35,302.89,225.35z"/>
		<path style="fill:#F9F4E7;" d="M406.8,178.72c0.68-0.51,1.35-1.02,2.03-1.52C408.16,177.7,407.48,178.21,406.8,178.72z"/>
		<path style="fill:#F9F4E7;" d="M422.04,182.76c-0.43,0.47-0.85,0.93-1.28,1.4C421.18,183.7,421.61,183.23,422.04,182.76z"/>
		<path style="fill:#F9C998;" d="M106.58,180.09c-1.63-0.37-3.25-0.74-4.88-1.11c-0.59-0.71-1.17-1.43-1.76-2.14
			c-0.65-0.5-1.29-0.99-1.94-1.49l-0.28-0.21c-1.03-0.7-2.06-1.4-3.09-2.09l-0.01,0c-0.57-0.64-1.14-1.29-1.7-1.93l-0.01-0.02
			c-1.17-1.3-2.33-2.59-3.5-3.89c-0.38-0.75-0.76-1.51-1.14-2.26l0.08-0.22c-4.59-17.91,7.88-24.41,17.62-32.75
			c0.78,0.74,1.97,1.89,3.57,3.41c2.31-3.47,4.44-6.66,6.92-10.38c1.13,2.22,2.07,4.08,3.4,6.7c2.23-3.88,3.44-5.98,5-8.7
			c6.9,5,13.8,10.01,20.71,15.02c0.71,3.12,1.43,6.24,2.14,9.36c-1.15,5.89-2.3,11.77-3.45,17.66c-3.34,2.48-6.69,4.97-10.03,7.44
			c-2.15,1.94-4.3,3.88-6.45,5.82c-3.5,12.19-5.78,12.71-14.35,4.07C111.83,180.75,108.9,180.81,106.58,180.09z M111.77,166.7
			c7.6,8.62,12.19,7.56,15.21-3.83C121.65,164.21,117.07,165.37,111.77,166.7z"/>
		<path style="fill:#714E30;" d="M145.57,138.03c-6.91-5.01-13.82-10.02-20.71-15.02c-1.56,2.72-2.77,4.83-5,8.7
			c-1.33-2.62-2.27-4.48-3.4-6.7c-2.48,3.72-4.61,6.91-6.92,10.38c-1.6-1.53-2.79-2.67-3.57-3.41
			c-9.74,8.34-22.21,14.84-17.62,32.75c-4.8-7.57-9.6-15.14-14.4-22.71c5.13-7.74,5.13-7.74,1.23-12.56
			c5.74-5.45,11.91-10.43,17.14-16.46c8.36-9.66,18.29-11.62,29.4-6.53c6.39,2.93,14.18,1.6,18.36,10.27
			c1.65,3.42,5.12,5.71,7.15,7.86C146.67,129.15,146.12,133.59,145.57,138.03z"/>
		<path style="fill:#A03820;" d="M226.93,145.82c-1.34-4.31-2.68-8.61-4.02-12.92c1.35-3,2.97-5.89,3.99-9.02
			c4.95-15.17,15.99-24.74,29.86-25.59c13.72-0.85,26.77,7.99,33.02,22.08c1.02,2.3,2.95,4.08,4.45,6.1
			c-0.45,5.15-0.9,10.3-1.35,15.46c-1.19,3.3-2.38,6.6-3.57,9.9c-1.23-2.92-2.59-5.79-3.67-8.79c-1.42-3.92-2.17-8.26-4.06-11.84
			c-2.14-4.07-5.23-7.51-7.1-10.11c-6.71,1.73-13.44,5.57-19.62,4.64C239.88,123.48,230.63,129.03,226.93,145.82z"/>
		<path style="fill:#CEAB0A;" d="M217.72,132c-0.74,1.53-1.48,3.05-2.23,4.58c-10.63-0.78-12.31-11.44-16.46-21.06
			c-12.15,16.3-25.33,28.31-44.44,26.77c-0.09-21.91,12.19-38.18,26.69-41.6C200.78,96.09,217.84,113.03,217.72,132z"/>
		<path style="fill:#664F55;" d="M73.95,142.02c4.8,7.57,9.6,15.14,14.4,22.71c0,0-0.07,0.22-0.08,0.22
			c-0.2,0.73-0.39,1.47-0.58,2.2c-1.07,1.98-2.15,3.97-3.59,6.63c2.54,0.51,4.11,0.82,5.68,1.14c-3.58,4.68-7.26,8.61-12.21,1.9
			c0-4.06-0.01-8.12-0.01-12.18c-0.69-1.02-1.39-2.05-2.08-3.07c-0.94-0.74-1.88-1.48-2.82-2.22c-2.57-5.02-4.56-10.62-7.89-14.88
			c-2.91-3.72-7.33-5.93-11.08-8.81c0.84-0.53,1.68-1.07,2.52-1.6c-6.63,1.93-13.18,4.77-19.91,5.57
			c-10.58,1.25-16.97,7.44-20.64,18.27c-0.66,1.96-1.87,3.67-2.83,5.5c-4.96-24.9,5.16-43.86,25.02-47.39
			c11.41-2.03,27.04,4.96,32.68,19.71C71.39,137.95,72.8,139.92,73.95,142.02z"/>
		<path style="fill:#D0AD1D;" d="M144.26,165.04c1.15-5.89,2.3-11.77,3.45-17.66c0.45,0.1,0.91,0.08,1.35-0.04c0,4.1,0,8.19,0,12.29
			c0.56,0.02,1.12,0.03,1.67,0.05c0.15-1.47,0.29-2.94,0.44-4.41c2.88,2.74,5.76,5.48,8.65,8.22c1.16,3.88,2.32,7.75,3.48,11.63
			c-4.14-0.73-8.28-1.47-12.42-2.2C148.67,170.29,146.47,167.67,144.26,165.04z"/>
		<path style="fill:#CEAB0A;" d="M151.17,155.27c-0.15,1.47-0.29,2.94-0.44,4.41c-0.56-0.02-1.12-0.03-1.67-0.05
			c0-4.1,0-8.19,0-12.29c1.39-0.49,2.77-0.99,4.16-1.48C152.54,149,151.86,152.13,151.17,155.27z"/>
		<path style="fill:#6F4A27;" d="M427.92,132.95c-0.67,6.23-1.34,12.46-2.01,18.68c-12.23-3.44-11.01-16.17-13.78-26.99
			c-11.83,8.1-23.37,15.71-37.45,13.8c-4.41-0.6-8.82-1.17-13.23-1.75c-0.06-3.04-0.12-6.08-0.18-9.13
			c1.97-1.92,4.44-3.47,5.85-5.83c13.3-22.26,38.73-25.35,53.46-5.78C424.07,120.6,425.53,127.23,427.92,132.95z"/>
		<path style="fill:#B88570;" d="M314.66,174.8c-1.5-0.66-2.99-1.32-4.49-1.99c-1.78-1.3-3.56-2.59-5.35-3.88
			c-2.86-7.06-5.72-14.13-8.58-21.2c1.02-3.47,2.2-6.89,3.02-10.41c2.45-10.45,10.55-17.01,19.94-16.1
			c6.59,0.64,13.38,0.21,19.74,1.88c11.25,2.96,18.11,11.12,18.7,24.88c-2.46,6.45-4.91,12.9-7.36,19.36
			c-2.29,1.99-4.58,3.98-6.87,5.97c-1.59,0.66-3.17,1.33-4.76,1.99c-0.99,0.57-1.98,1.14-2.97,1.71
			c-5.83,1.64-11.69,5.41-17.44-0.24C317.05,176.12,315.85,175.46,314.66,174.8z M335.54,163.42c-6.36-0.85-11.53-1.54-17.18-2.3
			C321.8,172.76,327.18,173.69,335.54,163.42z"/>
		<path style="fill:#F9F4E7;" d="M296.24,147.74c2.86,7.07,5.72,14.13,8.58,21.2c-5.17,1.44-10.33,2.88-15.5,4.32
			c-2.74-0.84-5.48-1.69-8.23-2.53c1.38-0.94,3.57-1.55,4.01-2.9c1.7-5.21,2.85-10.66,4.21-16.02c1.19-3.3,2.38-6.6,3.57-9.9
			C294.01,143.86,295.13,145.8,296.24,147.74z"/>
		<path style="fill:#F9F4E7;" d="M75.49,161.56c-1.04,0.6-2.08,1.2-3.12,1.81c0.1-1.34,0.2-2.68,0.3-4.02
			C73.6,160.09,74.55,160.83,75.49,161.56z"/>
		<path style="fill:#F9F4E7;" d="M70.59,168.87c-0.53,0.75-1.06,1.5-1.59,2.25C69.53,170.38,70.06,169.63,70.59,168.87z"/>
		<path style="fill:#F9F4E7;" d="M72.29,164.99c-0.48,0.75-0.95,1.49-1.43,2.24C71.34,166.49,71.82,165.74,72.29,164.99z"/>
		<path style="fill:#F9F4E7;" d="M67.25,174.94c-0.57,0.66-1.13,1.31-1.7,1.97C66.12,176.25,66.69,175.59,67.25,174.94z"/>
		<path style="fill:#F9F4E7;" d="M63.84,178.83c0.05,0.62,0.08,1.24,0.09,1.86c0,0-0.75,0.08-0.75,0.08s-0.74-0.15-0.74-0.15
			C62.91,180.03,63.37,179.43,63.84,178.83z"/>
		<path style="fill:#F9F4E7;" d="M68.85,172.69c-0.54,0.75-1.07,1.51-1.61,2.26C67.78,174.2,68.31,173.45,68.85,172.69z"/>
		<path style="fill:#F9F4E7;" d="M65.56,176.9c-0.57,0.65-1.14,1.3-1.72,1.94C64.42,178.2,64.99,177.55,65.56,176.9z"/>
		<path style="fill:#F9F4E7;" d="M196.06,162.85c-2.64,2.01-5.59,6.03-7.84,5.58c-3.71-0.75-6.96-4.39-10.4-6.82
			c0.42-0.98,0.84-1.97,1.26-2.95c5.28,0.46,10.57,0.93,15.85,1.39C195.3,160.99,195.68,161.92,196.06,162.85z"/>
		<path style="fill:#D78D0A;" d="M318.24,176.77c5.75,5.65,11.61,1.87,17.44,0.24c-0.84,7.11-3.89,12.08-10.68,11.56
			C318.77,188.09,318.06,182.53,318.24,176.77z"/>
		<path style="fill:#5A5856;" d="M345.72,180.88c0.06,1.28,0.12,2.56,0.18,3.84c0.98,2.2,1.95,4.4,2.93,6.6
			c-1.53,2.71-3.05,5.42-4.58,8.12c-1.86-8.05-3.72-16.1-5.59-24.14c1.59-0.66,3.17-1.33,4.76-1.99c0.67,1.97,1.33,3.94,1.99,5.91
			C345.32,179.82,345.43,180.37,345.72,180.88z"/>
		<path style="fill:#F9C998;" d="M289.31,151.82c-1.36,5.36-2.5,10.81-4.21,16.02c-0.44,1.34-2.63,1.95-4.01,2.9
			c-2.03,0.67-4.07,1.34-6.09,2.01c-1.54,0.31-3.09,0.62-4.65,0.93c-3.35,1.39-6.74,4.01-10.03,3.85c-4.6-0.22-9.12-2.52-13.67-3.93
			c-1.18-0.17-2.36-0.34-3.54-0.51c-4.48-2.62-8.97-5.24-13.45-7.86c0.8-1.45,2.52-3.22,2.23-4.3c-1.36-5.13-3.26-10.08-4.97-15.09
			c3.7-16.79,12.95-22.34,27.93-20.1c6.18,0.92,12.91-2.91,19.62-4.64c1.88,2.6,4.96,6.04,7.1,10.11c1.89,3.58,2.63,7.92,4.06,11.84
			C286.73,146.02,288.08,148.89,289.31,151.82z M265.01,164.68c-0.34-1.07-0.68-2.14-1.02-3.21c-4.57-0.64-9.13-1.27-13.7-1.91
			c-0.36,1.32-0.73,2.64-1.09,3.97c2.58,1.84,5.07,4.95,7.75,5.17C259.54,168.9,262.32,166.14,265.01,164.68z"/>
		<path style="fill:#F9F4E7;" d="M71.93,182.93c1.87,1.88,3.74,3.77,5.62,5.65l0-0.01c-1.62,0.03-3.23,0.05-4.85,0.08
			C72.44,186.74,72.18,184.84,71.93,182.93z"/>
		<path style="fill:#F9F4E7;" d="M64.03,180.75c1.64,0.58,3.29,1.16,4.93,1.73C67.32,181.91,65.68,181.33,64.03,180.75z"/>
		<path style="fill:#90CBDB;" d="M150.88,172.91c4.14,0.73,8.28,1.47,12.42,2.2c1.9,1.61,3.79,3.22,6.51,5.52
			c-1.38,1.09-2.48,1.97-3.57,2.84c-4.44-0.17-8.89-0.34-13.34-0.51C152.22,179.61,151.55,176.26,150.88,172.91z"/>
		<path style="fill:#F9F4E7;" d="M111.77,166.7c5.3-1.34,9.88-2.49,15.21-3.83C123.96,174.27,119.37,175.32,111.77,166.7z"/>
		<path style="fill:#F9F4E7;" d="M92.92,171.1c-1.04,1.27-2.09,2.55-3.13,3.82c-1.57-0.32-3.15-0.63-5.68-1.14
			c1.44-2.66,2.52-4.65,3.59-6.63c0.58,0.02,1.15,0.04,1.72,0.06C90.59,168.51,91.76,169.8,92.92,171.1z"/>
		<path style="fill:#F9F4E7;" d="M97.73,175.14c-1.03-0.7-2.06-1.4-3.09-2.09C95.67,173.75,96.7,174.44,97.73,175.14z"/>
		<path style="fill:#F9F4E7;" d="M99.95,176.84c-0.65-0.5-1.29-1-1.94-1.49C98.65,175.85,99.3,176.34,99.95,176.84z"/>
		<path style="fill:#F9F4E7;" d="M94.63,173.05c-0.57-0.64-1.14-1.29-1.7-1.93C93.5,171.76,94.06,172.4,94.63,173.05z"/>
		<path style="fill:#714E30;" d="M89.43,167.21c-0.57-0.02-1.15-0.04-1.72-0.06c0.19-0.73,0.38-1.46,0.58-2.2
			C88.67,165.7,89.05,166.46,89.43,167.21z"/>
		<path style="fill:#714E30;" d="M77.58,176.82c0-4.06-0.01-8.12-0.01-12.18C77.57,168.7,77.58,172.76,77.58,176.82z"/>
		<path style="fill:#93D54E;" d="M345.42,179.22c-0.66-1.97-1.32-3.94-1.99-5.91c2.29-1.99,4.58-3.98,6.87-5.97
			c5.68,0.15,11.7-0.18,10.75,9.57c-0.1,0.62-0.17,1.24-0.19,1.87c-0.54,0.08-1.04,0.27-1.51,0.57
			C354.7,179.32,350.06,179.27,345.42,179.22z"/>
		<path style="fill:#F9F4E7;" d="M335.54,163.42c-8.36,10.28-13.74,9.35-17.18-2.3C324.01,161.87,329.18,162.57,335.54,163.42z"/>
		<path style="fill:#F9F4E7;" d="M345.42,179.22c4.64,0.05,9.28,0.09,13.93,0.14c0.31,2.47,0.63,4.94,1.02,8.08
			c-2.05,0.83-4.22,1.7-8.32,3.34c2.44-3.8,3.72-5.8,6.36-9.91c-5.31,0-9,0-12.69,0C345.43,180.37,345.32,179.82,345.42,179.22z"/>
		<path style="fill:#F9F4E7;" d="M348.83,191.32c-0.98-2.2-1.95-4.4-2.93-6.6C346.87,186.92,347.85,189.12,348.83,191.32z"/>
		<path style="fill:#F9F4E7;" d="M360.85,178.79c0.03-0.63,0.09-1.25,0.19-1.87c0.71,0.37,1.42,0.75,2.13,1.12
			C362.4,178.29,361.63,178.54,360.85,178.79z"/>
		<path style="fill:#F9F4E7;" d="M77.54,188.58c1.47-0.14,2.95-0.28,4.42-0.42c-0.08,0.65-0.17,1.29-0.25,1.94
			C80.32,189.59,78.93,189.08,77.54,188.58C77.55,188.57,77.54,188.58,77.54,188.58z"/>
	</g>
</g>
</svg>
